<svg width="598" height="216" viewBox="0 0 598 216" fill="none" xmlns="http://www.w3.org/2000/svg">
<g filter="url(#filter0_d_112_2)">
<circle cx="81" cy="75" r="75" fill="white"/>
</g>
<path d="M92.6973 41.5703V102H78.7104V57.3418L64.9312 61.3677V50.7427L91.4106 41.5703H92.6973Z" fill="black" fill-opacity="0.75"/>
<g filter="url(#filter1_d_112_2)">
<circle cx="293" cy="75" r="75" fill="#003366" fill-opacity="0.79" shape-rendering="crispEdges"/>
</g>
<path d="M312.903 91.209V102H270.735V92.8691L290.159 72.4492C291.875 70.4847 293.258 68.7277 294.31 67.1782C295.361 65.6011 296.122 64.1761 296.592 62.9033C297.09 61.6305 297.339 60.4823 297.339 59.4585C297.339 57.7153 297.076 56.2627 296.551 55.1006C296.053 53.9108 295.306 53.0116 294.31 52.4028C293.341 51.7941 292.138 51.4897 290.699 51.4897C289.26 51.4897 288.001 51.9048 286.922 52.7349C285.843 53.5649 284.999 54.6994 284.39 56.1382C283.809 57.577 283.519 59.1956 283.519 60.9941H269.49C269.49 57.2865 270.389 53.897 272.188 50.8257C274.014 47.7544 276.546 45.3057 279.783 43.4795C283.021 41.6257 286.77 40.6987 291.031 40.6987C295.486 40.6987 299.221 41.3905 302.237 42.7739C305.253 44.1574 307.522 46.1634 309.043 48.792C310.593 51.3929 311.368 54.5334 311.368 58.2134C311.368 60.3162 311.036 62.3361 310.372 64.2729C309.708 66.2098 308.753 68.1328 307.508 70.042C306.263 71.9235 304.741 73.8604 302.942 75.8525C301.172 77.8447 299.152 79.9614 296.883 82.2026L289.08 91.209H312.903Z" fill="white"/>
<g filter="url(#filter2_d_112_2)">
<circle cx="505" cy="80" r="75" fill="white" fill-opacity="0.79" shape-rendering="crispEdges"/>
</g>
<path d="M496.477 72.9331H503.284C505.027 72.9331 506.452 72.6287 507.559 72.02C508.693 71.3836 509.537 70.4982 510.09 69.3638C510.644 68.2017 510.92 66.832 510.92 65.2549C510.92 64.0374 510.658 62.9168 510.132 61.8931C509.634 60.8693 508.859 60.0531 507.808 59.4443C506.756 58.8079 505.414 58.4897 503.782 58.4897C502.675 58.4897 501.596 58.7249 500.544 59.1953C499.493 59.638 498.621 60.2744 497.93 61.1045C497.266 61.9346 496.934 62.9445 496.934 64.1343H482.905C482.905 60.7033 483.846 57.7703 485.728 55.3354C487.637 52.8729 490.141 50.9914 493.24 49.6909C496.366 48.3628 499.728 47.6987 503.325 47.6987C507.614 47.6987 511.377 48.3628 514.614 49.6909C517.852 50.9914 520.369 52.9282 522.168 55.5015C523.994 58.047 524.907 61.2013 524.907 64.9644C524.907 67.0396 524.423 68.9902 523.455 70.8164C522.486 72.6426 521.13 74.2474 519.387 75.6309C517.644 77.0143 515.597 78.1073 513.245 78.9097C510.92 79.6844 508.375 80.0718 505.608 80.0718H496.477V72.9331ZM496.477 83.3506V76.3779H505.608C508.624 76.3779 511.377 76.7238 513.867 77.4155C516.357 78.0796 518.502 79.0757 520.3 80.4038C522.099 81.7319 523.482 83.3783 524.451 85.3428C525.419 87.2796 525.903 89.507 525.903 92.0249C525.903 94.8472 525.336 97.3651 524.202 99.5786C523.067 101.792 521.476 103.66 519.429 105.182C517.381 106.703 514.988 107.866 512.249 108.668C509.509 109.443 506.535 109.83 503.325 109.83C500.807 109.83 498.289 109.498 495.771 108.834C493.254 108.142 490.957 107.091 488.882 105.68C486.807 104.241 485.133 102.415 483.86 100.201C482.615 97.96 481.992 95.2899 481.992 92.1909H496.021C496.021 93.4637 496.366 94.6258 497.058 95.6772C497.778 96.701 498.732 97.5173 499.922 98.126C501.112 98.7347 502.398 99.0391 503.782 99.0391C505.497 99.0391 506.95 98.7209 508.14 98.0845C509.357 97.4204 510.284 96.535 510.92 95.4282C511.557 94.3215 511.875 93.0902 511.875 91.7344C511.875 89.6868 511.529 88.0544 510.837 86.8369C510.173 85.6195 509.191 84.734 507.891 84.1807C506.618 83.6273 505.082 83.3506 503.284 83.3506H496.477Z" fill="black" fill-opacity="0.75"/>
<line x1="155" y1="82" x2="217" y2="82" stroke="black" stroke-opacity="0.75" stroke-width="16"/>
<line x1="368" y1="82" x2="430" y2="82" stroke="black" stroke-opacity="0.75" stroke-width="16"/>
<path d="M450.969 203.051H446.105V201.82H450.969C451.984 201.82 452.809 201.656 453.441 201.328C454.082 200.992 454.547 200.539 454.836 199.969C455.133 199.398 455.281 198.758 455.281 198.047C455.281 197.352 455.133 196.711 454.836 196.125C454.547 195.539 454.082 195.07 453.441 194.719C452.809 194.359 451.984 194.18 450.969 194.18H446.609V210H445.168V192.938H450.969C452.219 192.938 453.27 193.152 454.121 193.582C454.98 194.012 455.629 194.609 456.066 195.375C456.504 196.141 456.723 197.023 456.723 198.023C456.723 199.07 456.504 199.973 456.066 200.73C455.629 201.48 454.984 202.055 454.133 202.453C453.281 202.852 452.227 203.051 450.969 203.051ZM461.023 199.418V210H459.629V197.32H460.988L461.023 199.418ZM465.512 197.227L465.477 198.516C465.32 198.492 465.168 198.473 465.02 198.457C464.871 198.441 464.711 198.434 464.539 198.434C463.93 198.434 463.395 198.547 462.934 198.773C462.48 198.992 462.098 199.301 461.785 199.699C461.473 200.09 461.234 200.551 461.07 201.082C460.906 201.605 460.812 202.168 460.789 202.77L460.273 202.969C460.273 202.141 460.359 201.371 460.531 200.66C460.703 199.949 460.965 199.328 461.316 198.797C461.676 198.258 462.125 197.84 462.664 197.543C463.211 197.238 463.852 197.086 464.586 197.086C464.766 197.086 464.941 197.102 465.113 197.133C465.293 197.156 465.426 197.188 465.512 197.227ZM466.707 203.859V203.473C466.707 202.551 466.84 201.699 467.105 200.918C467.371 200.137 467.75 199.461 468.242 198.891C468.742 198.32 469.34 197.879 470.035 197.566C470.73 197.246 471.504 197.086 472.355 197.086C473.215 197.086 473.992 197.246 474.688 197.566C475.383 197.879 475.98 198.32 476.48 198.891C476.98 199.461 477.363 200.137 477.629 200.918C477.895 201.699 478.027 202.551 478.027 203.473V203.859C478.027 204.781 477.895 205.633 477.629 206.414C477.363 207.188 476.98 207.859 476.48 208.43C475.988 209 475.395 209.445 474.699 209.766C474.004 210.078 473.23 210.234 472.379 210.234C471.52 210.234 470.742 210.078 470.047 209.766C469.352 209.445 468.754 209 468.254 208.43C467.754 207.859 467.371 207.188 467.105 206.414C466.84 205.633 466.707 204.781 466.707 203.859ZM468.102 203.473V203.859C468.102 204.555 468.195 205.215 468.383 205.84C468.57 206.457 468.844 207.008 469.203 207.492C469.562 207.969 470.008 208.344 470.539 208.617C471.07 208.891 471.684 209.027 472.379 209.027C473.066 209.027 473.672 208.891 474.195 208.617C474.727 208.344 475.172 207.969 475.531 207.492C475.891 207.008 476.16 206.457 476.34 205.84C476.527 205.215 476.621 204.555 476.621 203.859V203.473C476.621 202.785 476.527 202.133 476.34 201.516C476.16 200.898 475.887 200.348 475.52 199.863C475.16 199.379 474.715 198.996 474.184 198.715C473.652 198.434 473.043 198.293 472.355 198.293C471.668 198.293 471.059 198.434 470.527 198.715C470.004 198.996 469.559 199.379 469.191 199.863C468.832 200.348 468.559 200.898 468.371 201.516C468.191 202.133 468.102 202.785 468.102 203.473ZM484.484 208.652L488.551 197.32H489.992L485.246 210H484.227L484.484 208.652ZM480.805 197.32L484.918 208.688L485.141 210H484.109L479.352 197.32H480.805ZM493.859 197.32V210H492.465V197.32H493.859ZM492.219 193.652C492.219 193.387 492.301 193.164 492.465 192.984C492.637 192.797 492.871 192.703 493.168 192.703C493.465 192.703 493.699 192.797 493.871 192.984C494.051 193.164 494.141 193.387 494.141 193.652C494.141 193.91 494.051 194.133 493.871 194.32C493.699 194.5 493.465 194.59 493.168 194.59C492.871 194.59 492.637 194.5 492.465 194.32C492.301 194.133 492.219 193.91 492.219 193.652ZM505.285 206.766C505.285 206.422 505.199 206.082 505.027 205.746C504.855 205.41 504.523 205.102 504.031 204.82C503.547 204.539 502.832 204.301 501.887 204.105C501.184 203.949 500.555 203.773 500 203.578C499.453 203.383 498.992 203.148 498.617 202.875C498.242 202.602 497.957 202.273 497.762 201.891C497.566 201.508 497.469 201.055 497.469 200.531C497.469 200.062 497.57 199.621 497.773 199.207C497.984 198.785 498.281 198.418 498.664 198.105C499.055 197.785 499.523 197.535 500.07 197.355C500.625 197.176 501.246 197.086 501.934 197.086C502.91 197.086 503.746 197.254 504.441 197.59C505.145 197.918 505.68 198.367 506.047 198.938C506.422 199.508 506.609 200.152 506.609 200.871H505.215C505.215 200.434 505.086 200.02 504.828 199.629C504.578 199.238 504.207 198.918 503.715 198.668C503.23 198.418 502.637 198.293 501.934 198.293C501.207 198.293 500.617 198.402 500.164 198.621C499.711 198.84 499.379 199.117 499.168 199.453C498.965 199.789 498.863 200.137 498.863 200.496C498.863 200.777 498.906 201.035 498.992 201.27C499.086 201.496 499.25 201.707 499.484 201.902C499.727 202.098 500.07 202.281 500.516 202.453C500.961 202.625 501.539 202.793 502.25 202.957C503.273 203.184 504.109 203.461 504.758 203.789C505.414 204.109 505.898 204.508 506.211 204.984C506.523 205.453 506.68 206.023 506.68 206.695C506.68 207.219 506.57 207.699 506.352 208.137C506.133 208.566 505.816 208.938 505.402 209.25C504.996 209.562 504.504 209.805 503.926 209.977C503.355 210.148 502.715 210.234 502.004 210.234C500.934 210.234 500.027 210.059 499.285 209.707C498.551 209.348 497.992 208.879 497.609 208.301C497.234 207.715 497.047 207.094 497.047 206.438H498.441C498.488 207.094 498.695 207.613 499.062 207.996C499.43 208.371 499.879 208.637 500.41 208.793C500.949 208.949 501.48 209.027 502.004 209.027C502.723 209.027 503.324 208.922 503.809 208.711C504.293 208.5 504.66 208.223 504.91 207.879C505.16 207.535 505.285 207.164 505.285 206.766ZM511.414 197.32V210H510.02V197.32H511.414ZM509.773 193.652C509.773 193.387 509.855 193.164 510.02 192.984C510.191 192.797 510.426 192.703 510.723 192.703C511.02 192.703 511.254 192.797 511.426 192.984C511.605 193.164 511.695 193.387 511.695 193.652C511.695 193.91 511.605 194.133 511.426 194.32C511.254 194.5 511.02 194.59 510.723 194.59C510.426 194.59 510.191 194.5 510.02 194.32C509.855 194.133 509.773 193.91 509.773 193.652ZM514.473 203.859V203.473C514.473 202.551 514.605 201.699 514.871 200.918C515.137 200.137 515.516 199.461 516.008 198.891C516.508 198.32 517.105 197.879 517.801 197.566C518.496 197.246 519.27 197.086 520.121 197.086C520.98 197.086 521.758 197.246 522.453 197.566C523.148 197.879 523.746 198.32 524.246 198.891C524.746 199.461 525.129 200.137 525.395 200.918C525.66 201.699 525.793 202.551 525.793 203.473V203.859C525.793 204.781 525.66 205.633 525.395 206.414C525.129 207.188 524.746 207.859 524.246 208.43C523.754 209 523.16 209.445 522.465 209.766C521.77 210.078 520.996 210.234 520.145 210.234C519.285 210.234 518.508 210.078 517.812 209.766C517.117 209.445 516.52 209 516.02 208.43C515.52 207.859 515.137 207.188 514.871 206.414C514.605 205.633 514.473 204.781 514.473 203.859ZM515.867 203.473V203.859C515.867 204.555 515.961 205.215 516.148 205.84C516.336 206.457 516.609 207.008 516.969 207.492C517.328 207.969 517.773 208.344 518.305 208.617C518.836 208.891 519.449 209.027 520.145 209.027C520.832 209.027 521.438 208.891 521.961 208.617C522.492 208.344 522.938 207.969 523.297 207.492C523.656 207.008 523.926 206.457 524.105 205.84C524.293 205.215 524.387 204.555 524.387 203.859V203.473C524.387 202.785 524.293 202.133 524.105 201.516C523.926 200.898 523.652 200.348 523.285 199.863C522.926 199.379 522.48 198.996 521.949 198.715C521.418 198.434 520.809 198.293 520.121 198.293C519.434 198.293 518.824 198.434 518.293 198.715C517.77 198.996 517.324 199.379 516.957 199.863C516.598 200.348 516.324 200.898 516.137 201.516C515.957 202.133 515.867 202.785 515.867 203.473ZM530.094 200.027V210H528.699V197.32H530.035L530.094 200.027ZM529.777 202.875L529.156 202.523C529.203 201.773 529.355 201.07 529.613 200.414C529.871 199.758 530.219 199.18 530.656 198.68C531.102 198.18 531.621 197.789 532.215 197.508C532.816 197.227 533.48 197.086 534.207 197.086C534.84 197.086 535.406 197.172 535.906 197.344C536.406 197.516 536.832 197.789 537.184 198.164C537.535 198.539 537.801 199.02 537.98 199.605C538.168 200.191 538.262 200.906 538.262 201.75V210H536.855V201.738C536.855 200.863 536.734 200.18 536.492 199.688C536.25 199.188 535.906 198.832 535.461 198.621C535.016 198.41 534.488 198.305 533.879 198.305C533.207 198.305 532.617 198.453 532.109 198.75C531.609 199.039 531.188 199.418 530.844 199.887C530.508 200.348 530.25 200.844 530.07 201.375C529.891 201.898 529.793 202.398 529.777 202.875ZM543.453 197.32V210H542.059V197.32H543.453ZM541.812 193.652C541.812 193.387 541.895 193.164 542.059 192.984C542.23 192.797 542.465 192.703 542.762 192.703C543.059 192.703 543.293 192.797 543.465 192.984C543.645 193.164 543.734 193.387 543.734 193.652C543.734 193.91 543.645 194.133 543.465 194.32C543.293 194.5 543.059 194.59 542.762 194.59C542.465 194.59 542.23 194.5 542.059 194.32C541.895 194.133 541.812 193.91 541.812 193.652ZM548.68 200.027V210H547.285V197.32H548.621L548.68 200.027ZM548.363 202.875L547.742 202.523C547.789 201.773 547.941 201.07 548.199 200.414C548.457 199.758 548.805 199.18 549.242 198.68C549.688 198.18 550.207 197.789 550.801 197.508C551.402 197.227 552.066 197.086 552.793 197.086C553.426 197.086 553.992 197.172 554.492 197.344C554.992 197.516 555.418 197.789 555.77 198.164C556.121 198.539 556.387 199.02 556.566 199.605C556.754 200.191 556.848 200.906 556.848 201.75V210H555.441V201.738C555.441 200.863 555.32 200.18 555.078 199.688C554.836 199.188 554.492 198.832 554.047 198.621C553.602 198.41 553.074 198.305 552.465 198.305C551.793 198.305 551.203 198.453 550.695 198.75C550.195 199.039 549.773 199.418 549.43 199.887C549.094 200.348 548.836 200.844 548.656 201.375C548.477 201.898 548.379 202.398 548.363 202.875ZM568.824 197.32H570.125V209.777C570.125 210.879 569.914 211.824 569.492 212.613C569.078 213.402 568.488 214.008 567.723 214.43C566.965 214.852 566.07 215.062 565.039 215.062C564.516 215.062 563.977 214.98 563.422 214.816C562.875 214.66 562.355 214.418 561.863 214.09C561.379 213.77 560.965 213.371 560.621 212.895L561.406 212.039C561.922 212.664 562.473 213.121 563.059 213.41C563.645 213.707 564.277 213.855 564.957 213.855C565.762 213.855 566.441 213.695 566.996 213.375C567.559 213.055 567.984 212.594 568.273 211.992C568.57 211.391 568.719 210.668 568.719 209.824V200.109L568.824 197.32ZM559.918 203.789V203.543C559.918 202.559 560.027 201.672 560.246 200.883C560.473 200.086 560.797 199.406 561.219 198.844C561.641 198.273 562.152 197.84 562.754 197.543C563.363 197.238 564.051 197.086 564.816 197.086C565.551 197.086 566.203 197.207 566.773 197.449C567.344 197.691 567.836 198.039 568.25 198.492C568.664 198.945 568.996 199.484 569.246 200.109C569.504 200.734 569.691 201.43 569.809 202.195V205.324C569.715 206.043 569.543 206.703 569.293 207.305C569.043 207.898 568.711 208.418 568.297 208.863C567.883 209.301 567.383 209.641 566.797 209.883C566.219 210.117 565.551 210.234 564.793 210.234C564.035 210.234 563.355 210.078 562.754 209.766C562.152 209.453 561.641 209.012 561.219 208.441C560.797 207.863 560.473 207.18 560.246 206.391C560.027 205.602 559.918 204.734 559.918 203.789ZM561.324 203.543V203.789C561.324 204.531 561.398 205.219 561.547 205.852C561.695 206.484 561.922 207.035 562.227 207.504C562.531 207.973 562.918 208.34 563.387 208.605C563.855 208.871 564.406 209.004 565.039 209.004C565.844 209.004 566.52 208.852 567.066 208.547C567.613 208.234 568.047 207.824 568.367 207.316C568.688 206.801 568.922 206.238 569.07 205.629V201.984C568.984 201.57 568.852 201.148 568.672 200.719C568.5 200.289 568.258 199.895 567.945 199.535C567.641 199.168 567.25 198.875 566.773 198.656C566.305 198.43 565.734 198.316 565.062 198.316C564.422 198.316 563.863 198.449 563.387 198.715C562.918 198.98 562.531 199.352 562.227 199.828C561.922 200.297 561.695 200.848 561.547 201.48C561.398 202.113 561.324 202.801 561.324 203.543Z" fill="black"/>
<path d="M40.1328 189.938H45.6758C46.8555 189.938 47.8789 190.129 48.7461 190.512C49.6133 190.895 50.2812 191.461 50.75 192.211C51.2266 192.953 51.4648 193.867 51.4648 194.953C51.4648 195.758 51.293 196.488 50.9492 197.145C50.6133 197.801 50.1484 198.352 49.5547 198.797C48.9609 199.234 48.2734 199.535 47.4922 199.699L46.9883 199.887H41.0703L41.0469 198.656H46.0039C46.8945 198.656 47.6367 198.484 48.2305 198.141C48.8242 197.797 49.2695 197.344 49.5664 196.781C49.8711 196.211 50.0234 195.602 50.0234 194.953C50.0234 194.18 49.8555 193.512 49.5195 192.949C49.1914 192.379 48.7031 191.941 48.0547 191.637C47.4062 191.332 46.6133 191.18 45.6758 191.18H41.5742V207H40.1328V189.938ZM50.668 207L46.25 199.371L47.7969 199.359L52.2031 206.848V207H50.668ZM59.9961 207.234C59.168 207.234 58.4062 207.082 57.7109 206.777C57.0234 206.473 56.4219 206.043 55.9062 205.488C55.3984 204.934 55.0039 204.277 54.7227 203.52C54.4492 202.754 54.3125 201.918 54.3125 201.012V200.508C54.3125 199.531 54.457 198.648 54.7461 197.859C55.0352 197.07 55.4336 196.395 55.9414 195.832C56.4492 195.27 57.0273 194.84 57.6758 194.543C58.332 194.238 59.0195 194.086 59.7383 194.086C60.543 194.086 61.2578 194.23 61.8828 194.52C62.5078 194.801 63.0312 195.203 63.4531 195.727C63.8828 196.242 64.207 196.855 64.4258 197.566C64.6445 198.27 64.7539 199.047 64.7539 199.898V200.754H55.1562V199.559H63.3594V199.395C63.3438 198.684 63.1992 198.02 62.9258 197.402C62.6602 196.777 62.2617 196.27 61.7305 195.879C61.1992 195.488 60.5352 195.293 59.7383 195.293C59.1445 195.293 58.5977 195.418 58.0977 195.668C57.6055 195.918 57.1797 196.277 56.8203 196.746C56.4688 197.207 56.1953 197.758 56 198.398C55.8125 199.031 55.7188 199.734 55.7188 200.508V201.012C55.7188 201.715 55.8203 202.371 56.0234 202.98C56.2344 203.582 56.5312 204.113 56.9141 204.574C57.3047 205.035 57.7656 205.395 58.2969 205.652C58.8281 205.91 59.4141 206.039 60.0547 206.039C60.8047 206.039 61.4688 205.902 62.0469 205.629C62.625 205.348 63.1445 204.906 63.6055 204.305L64.4844 204.984C64.2109 205.391 63.8672 205.766 63.4531 206.109C63.0469 206.453 62.5586 206.727 61.9883 206.93C61.418 207.133 60.7539 207.234 59.9961 207.234ZM75.7578 211.875V196.758L75.8516 194.32H77.1523V211.875H75.7578ZM66.957 200.789V200.543C66.957 199.559 67.0664 198.672 67.2852 197.883C67.5039 197.086 67.8242 196.406 68.2461 195.844C68.6758 195.273 69.1914 194.84 69.793 194.543C70.4023 194.238 71.0938 194.086 71.8672 194.086C72.6094 194.086 73.2695 194.207 73.8477 194.449C74.4258 194.691 74.9219 195.039 75.3359 195.492C75.7578 195.945 76.0977 196.484 76.3555 197.109C76.6133 197.734 76.8008 198.43 76.918 199.195V202.324C76.8242 203.043 76.6484 203.703 76.3906 204.305C76.1406 204.898 75.8047 205.418 75.3828 205.863C74.9609 206.301 74.4531 206.641 73.8594 206.883C73.2734 207.117 72.6016 207.234 71.8438 207.234C71.0781 207.234 70.3906 207.078 69.7812 206.766C69.1797 206.453 68.668 206.012 68.2461 205.441C67.832 204.863 67.5117 204.18 67.2852 203.391C67.0664 202.602 66.957 201.734 66.957 200.789ZM68.3633 200.543V200.789C68.3633 201.531 68.4375 202.219 68.5859 202.852C68.7422 203.484 68.9727 204.039 69.2773 204.516C69.582 204.992 69.9688 205.363 70.4375 205.629C70.9141 205.895 71.4688 206.027 72.1016 206.027C72.9062 206.027 73.5859 205.871 74.1406 205.559C74.6953 205.246 75.1367 204.832 75.4648 204.316C75.8008 203.801 76.043 203.238 76.1914 202.629V198.984C76.1133 198.586 75.9805 198.172 75.793 197.742C75.6055 197.312 75.3516 196.914 75.0312 196.547C74.7188 196.172 74.3242 195.871 73.8477 195.645C73.3711 195.41 72.7969 195.293 72.125 195.293C71.4844 195.293 70.9258 195.43 70.4492 195.703C69.9805 195.969 69.5898 196.34 69.2773 196.816C68.9727 197.293 68.7422 197.848 68.5859 198.48C68.4375 199.113 68.3633 199.801 68.3633 200.543ZM89.0234 204.07V194.32H90.4297V207H89.082L89.0234 204.07ZM89.2812 201.727L90.0078 201.703C90.0078 202.5 89.9141 203.234 89.7266 203.906C89.5391 204.578 89.2461 205.164 88.8477 205.664C88.4492 206.164 87.9336 206.551 87.3008 206.824C86.668 207.098 85.9062 207.234 85.0156 207.234C84.3984 207.234 83.832 207.148 83.3164 206.977C82.8086 206.797 82.3711 206.516 82.0039 206.133C81.6367 205.75 81.3516 205.254 81.1484 204.645C80.9531 204.035 80.8555 203.297 80.8555 202.43V194.32H82.25V202.453C82.25 203.133 82.3242 203.699 82.4727 204.152C82.6289 204.605 82.8398 204.969 83.1055 205.242C83.3789 205.516 83.6914 205.711 84.043 205.828C84.3945 205.945 84.7734 206.004 85.1797 206.004C86.2109 206.004 87.0234 205.805 87.6172 205.406C88.2188 205.008 88.6445 204.484 88.8945 203.836C89.1523 203.18 89.2812 202.477 89.2812 201.727ZM98.9961 207.234C98.168 207.234 97.4062 207.082 96.7109 206.777C96.0234 206.473 95.4219 206.043 94.9062 205.488C94.3984 204.934 94.0039 204.277 93.7227 203.52C93.4492 202.754 93.3125 201.918 93.3125 201.012V200.508C93.3125 199.531 93.457 198.648 93.7461 197.859C94.0352 197.07 94.4336 196.395 94.9414 195.832C95.4492 195.27 96.0273 194.84 96.6758 194.543C97.332 194.238 98.0195 194.086 98.7383 194.086C99.543 194.086 100.258 194.23 100.883 194.52C101.508 194.801 102.031 195.203 102.453 195.727C102.883 196.242 103.207 196.855 103.426 197.566C103.645 198.27 103.754 199.047 103.754 199.898V200.754H94.1562V199.559H102.359V199.395C102.344 198.684 102.199 198.02 101.926 197.402C101.66 196.777 101.262 196.27 100.73 195.879C100.199 195.488 99.5352 195.293 98.7383 195.293C98.1445 195.293 97.5977 195.418 97.0977 195.668C96.6055 195.918 96.1797 196.277 95.8203 196.746C95.4688 197.207 95.1953 197.758 95 198.398C94.8125 199.031 94.7188 199.734 94.7188 200.508V201.012C94.7188 201.715 94.8203 202.371 95.0234 202.98C95.2344 203.582 95.5312 204.113 95.9141 204.574C96.3047 205.035 96.7656 205.395 97.2969 205.652C97.8281 205.91 98.4141 206.039 99.0547 206.039C99.8047 206.039 100.469 205.902 101.047 205.629C101.625 205.348 102.145 204.906 102.605 204.305L103.484 204.984C103.211 205.391 102.867 205.766 102.453 206.109C102.047 206.453 101.559 206.727 100.988 206.93C100.418 207.133 99.7539 207.234 98.9961 207.234ZM114.113 203.766C114.113 203.422 114.027 203.082 113.855 202.746C113.684 202.41 113.352 202.102 112.859 201.82C112.375 201.539 111.66 201.301 110.715 201.105C110.012 200.949 109.383 200.773 108.828 200.578C108.281 200.383 107.82 200.148 107.445 199.875C107.07 199.602 106.785 199.273 106.59 198.891C106.395 198.508 106.297 198.055 106.297 197.531C106.297 197.062 106.398 196.621 106.602 196.207C106.812 195.785 107.109 195.418 107.492 195.105C107.883 194.785 108.352 194.535 108.898 194.355C109.453 194.176 110.074 194.086 110.762 194.086C111.738 194.086 112.574 194.254 113.27 194.59C113.973 194.918 114.508 195.367 114.875 195.938C115.25 196.508 115.438 197.152 115.438 197.871H114.043C114.043 197.434 113.914 197.02 113.656 196.629C113.406 196.238 113.035 195.918 112.543 195.668C112.059 195.418 111.465 195.293 110.762 195.293C110.035 195.293 109.445 195.402 108.992 195.621C108.539 195.84 108.207 196.117 107.996 196.453C107.793 196.789 107.691 197.137 107.691 197.496C107.691 197.777 107.734 198.035 107.82 198.27C107.914 198.496 108.078 198.707 108.312 198.902C108.555 199.098 108.898 199.281 109.344 199.453C109.789 199.625 110.367 199.793 111.078 199.957C112.102 200.184 112.938 200.461 113.586 200.789C114.242 201.109 114.727 201.508 115.039 201.984C115.352 202.453 115.508 203.023 115.508 203.695C115.508 204.219 115.398 204.699 115.18 205.137C114.961 205.566 114.645 205.938 114.23 206.25C113.824 206.562 113.332 206.805 112.754 206.977C112.184 207.148 111.543 207.234 110.832 207.234C109.762 207.234 108.855 207.059 108.113 206.707C107.379 206.348 106.82 205.879 106.438 205.301C106.062 204.715 105.875 204.094 105.875 203.438H107.27C107.316 204.094 107.523 204.613 107.891 204.996C108.258 205.371 108.707 205.637 109.238 205.793C109.777 205.949 110.309 206.027 110.832 206.027C111.551 206.027 112.152 205.922 112.637 205.711C113.121 205.5 113.488 205.223 113.738 204.879C113.988 204.535 114.113 204.164 114.113 203.766ZM123.477 194.32V195.469H117.125V194.32H123.477ZM119.457 191.062H120.852V203.918C120.852 204.504 120.93 204.945 121.086 205.242C121.242 205.539 121.445 205.738 121.695 205.84C121.945 205.941 122.215 205.992 122.504 205.992C122.715 205.992 122.918 205.98 123.113 205.957C123.309 205.926 123.484 205.895 123.641 205.863L123.699 207.047C123.527 207.102 123.305 207.145 123.031 207.176C122.758 207.215 122.484 207.234 122.211 207.234C121.672 207.234 121.195 207.137 120.781 206.941C120.367 206.738 120.043 206.395 119.809 205.91C119.574 205.418 119.457 204.75 119.457 203.906V191.062Z" fill="black"/>
<path d="M252.77 192.957L246.863 209H245.363L251.809 191.938H252.852L252.77 192.957ZM258.137 209L252.219 192.957L252.137 191.938H253.18L259.637 209H258.137ZM257.082 202.977V204.219H248.023V202.977H257.082ZM263.223 198.758V213.875H261.816V196.32H263.129L263.223 198.758ZM272.035 202.543V202.789C272.035 203.734 271.926 204.602 271.707 205.391C271.488 206.18 271.172 206.863 270.758 207.441C270.352 208.012 269.848 208.453 269.246 208.766C268.645 209.078 267.961 209.234 267.195 209.234C266.438 209.234 265.762 209.117 265.168 208.883C264.574 208.648 264.062 208.316 263.633 207.887C263.211 207.449 262.871 206.941 262.613 206.363C262.363 205.777 262.188 205.137 262.086 204.441V201.195C262.203 200.43 262.395 199.734 262.66 199.109C262.926 198.484 263.266 197.945 263.68 197.492C264.102 197.039 264.602 196.691 265.18 196.449C265.758 196.207 266.418 196.086 267.16 196.086C267.934 196.086 268.621 196.238 269.223 196.543C269.832 196.84 270.344 197.273 270.758 197.844C271.18 198.406 271.496 199.086 271.707 199.883C271.926 200.672 272.035 201.559 272.035 202.543ZM270.629 202.789V202.543C270.629 201.801 270.551 201.113 270.395 200.48C270.246 199.848 270.016 199.297 269.703 198.828C269.398 198.352 269.008 197.98 268.531 197.715C268.062 197.449 267.504 197.316 266.855 197.316C266.184 197.316 265.609 197.43 265.133 197.656C264.664 197.875 264.273 198.168 263.961 198.535C263.648 198.895 263.402 199.289 263.223 199.719C263.043 200.148 262.91 200.57 262.824 200.984V204.723C262.973 205.316 263.211 205.867 263.539 206.375C263.867 206.875 264.305 207.277 264.852 207.582C265.406 207.879 266.082 208.027 266.879 208.027C267.52 208.027 268.074 207.895 268.543 207.629C269.012 207.363 269.398 206.992 269.703 206.516C270.016 206.039 270.246 205.484 270.395 204.852C270.551 204.219 270.629 203.531 270.629 202.789ZM276.535 198.758V213.875H275.129V196.32H276.441L276.535 198.758ZM285.348 202.543V202.789C285.348 203.734 285.238 204.602 285.02 205.391C284.801 206.18 284.484 206.863 284.07 207.441C283.664 208.012 283.16 208.453 282.559 208.766C281.957 209.078 281.273 209.234 280.508 209.234C279.75 209.234 279.074 209.117 278.48 208.883C277.887 208.648 277.375 208.316 276.945 207.887C276.523 207.449 276.184 206.941 275.926 206.363C275.676 205.777 275.5 205.137 275.398 204.441V201.195C275.516 200.43 275.707 199.734 275.973 199.109C276.238 198.484 276.578 197.945 276.992 197.492C277.414 197.039 277.914 196.691 278.492 196.449C279.07 196.207 279.73 196.086 280.473 196.086C281.246 196.086 281.934 196.238 282.535 196.543C283.145 196.84 283.656 197.273 284.07 197.844C284.492 198.406 284.809 199.086 285.02 199.883C285.238 200.672 285.348 201.559 285.348 202.543ZM283.941 202.789V202.543C283.941 201.801 283.863 201.113 283.707 200.48C283.559 199.848 283.328 199.297 283.016 198.828C282.711 198.352 282.32 197.98 281.844 197.715C281.375 197.449 280.816 197.316 280.168 197.316C279.496 197.316 278.922 197.43 278.445 197.656C277.977 197.875 277.586 198.168 277.273 198.535C276.961 198.895 276.715 199.289 276.535 199.719C276.355 200.148 276.223 200.57 276.137 200.984V204.723C276.285 205.316 276.523 205.867 276.852 206.375C277.18 206.875 277.617 207.277 278.164 207.582C278.719 207.879 279.395 208.027 280.191 208.027C280.832 208.027 281.387 207.895 281.855 207.629C282.324 207.363 282.711 206.992 283.016 206.516C283.328 206.039 283.559 205.484 283.707 204.852C283.863 204.219 283.941 203.531 283.941 202.789ZM289.859 198.418V209H288.465V196.32H289.824L289.859 198.418ZM294.348 196.227L294.312 197.516C294.156 197.492 294.004 197.473 293.855 197.457C293.707 197.441 293.547 197.434 293.375 197.434C292.766 197.434 292.23 197.547 291.77 197.773C291.316 197.992 290.934 198.301 290.621 198.699C290.309 199.09 290.07 199.551 289.906 200.082C289.742 200.605 289.648 201.168 289.625 201.77L289.109 201.969C289.109 201.141 289.195 200.371 289.367 199.66C289.539 198.949 289.801 198.328 290.152 197.797C290.512 197.258 290.961 196.84 291.5 196.543C292.047 196.238 292.688 196.086 293.422 196.086C293.602 196.086 293.777 196.102 293.949 196.133C294.129 196.156 294.262 196.188 294.348 196.227ZM295.543 202.859V202.473C295.543 201.551 295.676 200.699 295.941 199.918C296.207 199.137 296.586 198.461 297.078 197.891C297.578 197.32 298.176 196.879 298.871 196.566C299.566 196.246 300.34 196.086 301.191 196.086C302.051 196.086 302.828 196.246 303.523 196.566C304.219 196.879 304.816 197.32 305.316 197.891C305.816 198.461 306.199 199.137 306.465 199.918C306.73 200.699 306.863 201.551 306.863 202.473V202.859C306.863 203.781 306.73 204.633 306.465 205.414C306.199 206.188 305.816 206.859 305.316 207.43C304.824 208 304.23 208.445 303.535 208.766C302.84 209.078 302.066 209.234 301.215 209.234C300.355 209.234 299.578 209.078 298.883 208.766C298.188 208.445 297.59 208 297.09 207.43C296.59 206.859 296.207 206.188 295.941 205.414C295.676 204.633 295.543 203.781 295.543 202.859ZM296.938 202.473V202.859C296.938 203.555 297.031 204.215 297.219 204.84C297.406 205.457 297.68 206.008 298.039 206.492C298.398 206.969 298.844 207.344 299.375 207.617C299.906 207.891 300.52 208.027 301.215 208.027C301.902 208.027 302.508 207.891 303.031 207.617C303.562 207.344 304.008 206.969 304.367 206.492C304.727 206.008 304.996 205.457 305.176 204.84C305.363 204.215 305.457 203.555 305.457 202.859V202.473C305.457 201.785 305.363 201.133 305.176 200.516C304.996 199.898 304.723 199.348 304.355 198.863C303.996 198.379 303.551 197.996 303.02 197.715C302.488 197.434 301.879 197.293 301.191 197.293C300.504 197.293 299.895 197.434 299.363 197.715C298.84 197.996 298.395 198.379 298.027 198.863C297.668 199.348 297.395 199.898 297.207 200.516C297.027 201.133 296.938 201.785 296.938 202.473ZM313.32 207.652L317.387 196.32H318.828L314.082 209H313.062L313.32 207.652ZM309.641 196.32L313.754 207.688L313.977 209H312.945L308.188 196.32H309.641ZM325.871 209.234C325.043 209.234 324.281 209.082 323.586 208.777C322.898 208.473 322.297 208.043 321.781 207.488C321.273 206.934 320.879 206.277 320.598 205.52C320.324 204.754 320.188 203.918 320.188 203.012V202.508C320.188 201.531 320.332 200.648 320.621 199.859C320.91 199.07 321.309 198.395 321.816 197.832C322.324 197.27 322.902 196.84 323.551 196.543C324.207 196.238 324.895 196.086 325.613 196.086C326.418 196.086 327.133 196.23 327.758 196.52C328.383 196.801 328.906 197.203 329.328 197.727C329.758 198.242 330.082 198.855 330.301 199.566C330.52 200.27 330.629 201.047 330.629 201.898V202.754H321.031V201.559H329.234V201.395C329.219 200.684 329.074 200.02 328.801 199.402C328.535 198.777 328.137 198.27 327.605 197.879C327.074 197.488 326.41 197.293 325.613 197.293C325.02 197.293 324.473 197.418 323.973 197.668C323.48 197.918 323.055 198.277 322.695 198.746C322.344 199.207 322.07 199.758 321.875 200.398C321.688 201.031 321.594 201.734 321.594 202.508V203.012C321.594 203.715 321.695 204.371 321.898 204.98C322.109 205.582 322.406 206.113 322.789 206.574C323.18 207.035 323.641 207.395 324.172 207.652C324.703 207.91 325.289 208.039 325.93 208.039C326.68 208.039 327.344 207.902 327.922 207.629C328.5 207.348 329.02 206.906 329.48 206.305L330.359 206.984C330.086 207.391 329.742 207.766 329.328 208.109C328.922 208.453 328.434 208.727 327.863 208.93C327.293 209.133 326.629 209.234 325.871 209.234ZM341.633 206.539V191H343.039V209H341.727L341.633 206.539ZM332.832 202.789V202.543C332.832 201.559 332.945 200.672 333.172 199.883C333.398 199.086 333.723 198.406 334.145 197.844C334.574 197.273 335.09 196.84 335.691 196.543C336.293 196.238 336.973 196.086 337.73 196.086C338.473 196.086 339.129 196.207 339.699 196.449C340.27 196.691 340.758 197.039 341.164 197.492C341.578 197.945 341.91 198.484 342.16 199.109C342.418 199.734 342.605 200.43 342.723 201.195V204.324C342.629 205.043 342.457 205.703 342.207 206.305C341.957 206.898 341.625 207.418 341.211 207.863C340.797 208.301 340.297 208.641 339.711 208.883C339.133 209.117 338.465 209.234 337.707 209.234C336.957 209.234 336.281 209.078 335.68 208.766C335.078 208.453 334.566 208.012 334.145 207.441C333.723 206.863 333.398 206.18 333.172 205.391C332.945 204.602 332.832 203.734 332.832 202.789ZM334.238 202.543V202.789C334.238 203.531 334.312 204.219 334.461 204.852C334.609 205.484 334.836 206.035 335.141 206.504C335.445 206.973 335.832 207.34 336.301 207.605C336.77 207.871 337.324 208.004 337.965 208.004C338.77 208.004 339.445 207.852 339.992 207.547C340.539 207.234 340.977 206.824 341.305 206.316C341.633 205.801 341.871 205.238 342.02 204.629V200.984C341.926 200.57 341.789 200.148 341.609 199.719C341.43 199.289 341.184 198.895 340.871 198.535C340.566 198.168 340.176 197.875 339.699 197.656C339.23 197.43 338.66 197.316 337.988 197.316C337.34 197.316 336.781 197.449 336.312 197.715C335.844 197.98 335.453 198.352 335.141 198.828C334.836 199.297 334.609 199.848 334.461 200.48C334.312 201.113 334.238 201.801 334.238 202.543Z" fill="black"/>
<defs>
<filter id="filter0_d_112_2" x="0" y="0" width="174" height="179" filterUnits="userSpaceOnUse" color-interpolation-filters="sRGB">
<feFlood flood-opacity="0" result="BackgroundImageFix"/>
<feColorMatrix in="SourceAlpha" type="matrix" values="0 0 0 0 0 0 0 0 0 0 0 0 0 0 0 0 0 0 127 0" result="hardAlpha"/>
<feMorphology radius="13" operator="erode" in="SourceAlpha" result="effect1_dropShadow_112_2"/>
<feOffset dx="6" dy="17"/>
<feGaussianBlur stdDeviation="12.5"/>
<feComposite in2="hardAlpha" operator="out"/>
<feColorMatrix type="matrix" values="0 0 0 0 0 0 0 0 0 0 0 0 0 0 0 0 0 0 0.68 0"/>
<feBlend mode="normal" in2="BackgroundImageFix" result="effect1_dropShadow_112_2"/>
<feBlend mode="normal" in="SourceGraphic" in2="effect1_dropShadow_112_2" result="shape"/>
</filter>
<filter id="filter1_d_112_2" x="212" y="0" width="174" height="179" filterUnits="userSpaceOnUse" color-interpolation-filters="sRGB">
<feFlood flood-opacity="0" result="BackgroundImageFix"/>
<feColorMatrix in="SourceAlpha" type="matrix" values="0 0 0 0 0 0 0 0 0 0 0 0 0 0 0 0 0 0 127 0" result="hardAlpha"/>
<feMorphology radius="13" operator="erode" in="SourceAlpha" result="effect1_dropShadow_112_2"/>
<feOffset dx="6" dy="17"/>
<feGaussianBlur stdDeviation="12.5"/>
<feComposite in2="hardAlpha" operator="out"/>
<feColorMatrix type="matrix" values="0 0 0 0 0 0 0 0 0 0 0 0 0 0 0 0 0 0 0.68 0"/>
<feBlend mode="normal" in2="BackgroundImageFix" result="effect1_dropShadow_112_2"/>
<feBlend mode="normal" in="SourceGraphic" in2="effect1_dropShadow_112_2" result="shape"/>
</filter>
<filter id="filter2_d_112_2" x="424" y="5" width="174" height="179" filterUnits="userSpaceOnUse" color-interpolation-filters="sRGB">
<feFlood flood-opacity="0" result="BackgroundImageFix"/>
<feColorMatrix in="SourceAlpha" type="matrix" values="0 0 0 0 0 0 0 0 0 0 0 0 0 0 0 0 0 0 127 0" result="hardAlpha"/>
<feMorphology radius="13" operator="erode" in="SourceAlpha" result="effect1_dropShadow_112_2"/>
<feOffset dx="6" dy="17"/>
<feGaussianBlur stdDeviation="12.5"/>
<feComposite in2="hardAlpha" operator="out"/>
<feColorMatrix type="matrix" values="0 0 0 0 0 0 0 0 0 0 0 0 0 0 0 0 0 0 0.68 0"/>
<feBlend mode="normal" in2="BackgroundImageFix" result="effect1_dropShadow_112_2"/>
<feBlend mode="normal" in="SourceGraphic" in2="effect1_dropShadow_112_2" result="shape"/>
</filter>
</defs>
</svg>
