<svg width="348" height="115" viewBox="0 0 348 115" fill="none" xmlns="http://www.w3.org/2000/svg">
<rect x="61" y="33" width="85" height="7" fill="#515151"/>
<path d="M195.5 33H280.5V40H195.5V33Z" fill="#515151"/>
<g filter="url(#filter0_d_69_28)">
<circle cx="39.5" cy="33.5" r="28.5" fill="#FFFEFF"/>
<circle cx="39.5" cy="33.5" r="27" stroke="#313132" stroke-width="3"/>
</g>
<path d="M41.868 20.296H37.404L29.124 26.884L31.752 30.16L34.704 27.784C35.388 27.208 36.324 26.308 36.576 26.02C36.54 26.776 36.504 27.676 36.468 28.684C36.432 29.728 36.432 30.52 36.432 31.132V46H41.868V20.296Z" fill="#313132"/>
<g filter="url(#filter1_d_69_28)">
<circle cx="303.5" cy="33.5" r="28.5" fill="#FFFEFF"/>
<circle cx="303.5" cy="33.5" r="27" stroke="#313132" stroke-width="3"/>
</g>
<path d="M311.396 26.056C311.396 22.168 308.084 19.936 302.792 19.936C299.048 19.936 296.42 21.016 294.404 22.456L296.924 26.2C298.112 25.444 299.948 24.328 302.396 24.328C305.024 24.328 306.068 25.408 306.068 27.244C306.068 29.224 305.06 30.7 300.308 30.7H298.328V34.876H300.272C305.096 34.876 306.464 36.064 306.464 38.188C306.464 40.636 305.096 42.04 301.208 42.04C299.084 42.04 296.564 41.464 294.368 40.348V44.956C296.528 45.892 299.012 46.36 301.784 46.36C308.984 46.36 312.152 42.976 312.152 38.512C312.152 35.164 309.92 33.112 305.852 32.572V32.464C307.4 32.068 308.732 31.348 309.812 30.304C310.856 29.26 311.396 27.82 311.396 26.056Z" fill="#313132"/>
<path d="M12.6463 91V86.89H13.8613L16.4113 91H18.9313L15.7813 86.335C16.8313 85.855 17.7763 84.97 17.7763 83.5C17.7763 81.34 16.4263 80.29 13.5013 80.29H10.3813V91H12.6463ZM12.6463 82.15H13.3363C14.7913 82.15 15.4813 82.54 15.4813 83.56C15.4813 84.535 14.8813 85.045 13.3813 85.045H12.6463V82.15ZM23.4786 82.66C21.1686 82.66 19.6086 84.115 19.6086 86.965C19.6086 89.8 21.3636 91.15 23.8086 91.15C25.0686 91.15 25.8636 90.97 26.6886 90.565V88.84C25.7736 89.275 24.9486 89.485 23.9136 89.485C22.6536 89.485 21.9186 88.72 21.8736 87.46H27.1536V86.38C27.1536 83.995 25.7436 82.66 23.4786 82.66ZM23.4936 84.25C24.5286 84.25 25.0386 85 25.0536 85.975H21.9186C22.0236 84.79 22.6086 84.25 23.4936 84.25ZM36.1209 94.6V82.81H34.2309L34.0359 83.86H33.9759C33.5109 83.185 32.8059 82.66 31.6059 82.66C30.6759 82.66 29.9259 83.02 29.3409 83.74C28.7559 84.46 28.4709 85.525 28.4709 86.92C28.4709 89.695 29.7159 91.15 31.5609 91.15C32.7609 91.15 33.4659 90.61 33.8859 89.935H33.9759C33.9159 90.34 33.8859 90.76 33.8859 91.165V94.6H36.1209ZM32.3559 89.395C31.2909 89.395 30.7509 88.585 30.7509 86.95C30.7509 85.345 31.2609 84.475 32.3259 84.475C33.6309 84.475 34.0359 85.36 34.0359 86.935V87.205C33.9909 88.66 33.6009 89.395 32.3559 89.395ZM38.4131 88.15C38.4131 90.25 39.5681 91.15 41.3231 91.15C42.3431 91.15 43.3181 90.79 43.8431 89.95H43.9631L44.2631 91H45.9731V82.81H43.7381V86.665C43.7381 88.405 43.3331 89.365 41.9681 89.365C41.0531 89.365 40.6481 88.78 40.6481 87.595V82.81H38.4131V88.15ZM51.6915 82.66C49.3815 82.66 47.8215 84.115 47.8215 86.965C47.8215 89.8 49.5765 91.15 52.0215 91.15C53.2815 91.15 54.0765 90.97 54.9015 90.565V88.84C53.9865 89.275 53.1615 89.485 52.1265 89.485C50.8665 89.485 50.1315 88.72 50.0865 87.46H55.3665V86.38C55.3665 83.995 53.9565 82.66 51.6915 82.66ZM51.7065 84.25C52.7415 84.25 53.2515 85 53.2665 85.975H50.1315C50.2365 84.79 50.8215 84.25 51.7065 84.25ZM62.8938 88.57C62.8938 87.115 62.0238 86.59 60.6138 86.02C59.1738 85.42 58.9038 85.255 58.9038 84.85C58.9038 84.49 59.2338 84.31 59.8938 84.31C60.6288 84.31 61.3338 84.565 62.1288 84.91L62.8038 83.305C61.8288 82.84 60.9438 82.66 59.9238 82.66C57.9588 82.66 56.6838 83.425 56.6838 84.94C56.6838 86.335 57.3738 86.86 58.9188 87.52C60.5088 88.18 60.6888 88.39 60.6888 88.81C60.6888 89.23 60.3288 89.515 59.4738 89.515C58.6938 89.515 57.5838 89.23 56.6988 88.825V90.67C57.5238 91.015 58.2588 91.15 59.3988 91.15C61.7238 91.15 62.8938 90.235 62.8938 88.57ZM64.8748 84.49V88.435C64.8748 90.55 65.9848 91.15 67.4398 91.15C68.2798 91.15 69.0148 91 69.4948 90.775V89.11C69.0298 89.275 68.5798 89.365 68.0848 89.365C67.4998 89.365 67.1098 89.05 67.1098 88.435V84.49H69.4048V82.81H67.1098V81.07H65.6848L65.0398 82.795L63.8098 83.545V84.49H64.8748ZM9.71656 111V106.89H10.9316L13.4816 111H16.0016L12.8516 106.335C13.9016 105.855 14.8466 104.97 14.8466 103.5C14.8466 101.34 13.4966 100.29 10.5716 100.29H7.45156V111H9.71656ZM9.71656 102.15H10.4066C11.8616 102.15 12.5516 102.54 12.5516 103.56C12.5516 104.535 11.9516 105.045 10.4516 105.045H9.71656V102.15ZM20.5489 102.66C18.2389 102.66 16.6789 104.115 16.6789 106.965C16.6789 109.8 18.4339 111.15 20.8789 111.15C22.1389 111.15 22.9339 110.97 23.7589 110.565V108.84C22.8439 109.275 22.0189 109.485 20.9839 109.485C19.7239 109.485 18.9889 108.72 18.9439 107.46H24.2239V106.38C24.2239 103.995 22.8139 102.66 20.5489 102.66ZM20.5639 104.25C21.5989 104.25 22.1089 105 22.1239 105.975H18.9889C19.0939 104.79 19.6789 104.25 20.5639 104.25ZM29.3662 111.15C30.5062 111.15 31.1812 110.97 31.8562 110.535V108.63C31.1812 109.065 30.5062 109.335 29.5612 109.335C28.4662 109.335 27.8212 108.57 27.8212 106.935C27.8212 105.285 28.4062 104.46 29.5612 104.46C30.1612 104.46 30.7462 104.655 31.4512 104.94L32.1112 103.215C31.4962 102.915 30.6862 102.66 29.5612 102.66C27.1912 102.66 25.5412 103.95 25.5412 106.95C25.5412 109.875 26.9212 111.15 29.3662 111.15ZM37.1163 102.66C34.8063 102.66 33.2463 104.115 33.2463 106.965C33.2463 109.8 35.0013 111.15 37.4463 111.15C38.7063 111.15 39.5013 110.97 40.3263 110.565V108.84C39.4113 109.275 38.5863 109.485 37.5513 109.485C36.2913 109.485 35.5563 108.72 35.5113 107.46H40.7913V106.38C40.7913 103.995 39.3813 102.66 37.1163 102.66ZM37.1313 104.25C38.1663 104.25 38.6763 105 38.6913 105.975H35.5563C35.6613 104.79 36.2463 104.25 37.1313 104.25ZM43.7286 99.6C43.0536 99.6 42.5136 99.855 42.5136 100.695C42.5136 101.52 43.0536 101.79 43.7286 101.79C44.3886 101.79 44.9436 101.52 44.9436 100.695C44.9436 99.855 44.3886 99.6 43.7286 99.6ZM42.6036 102.81V111H44.8386V102.81H42.6036ZM46.0039 102.81L49.1239 111H51.4189L54.5389 102.81H52.1989L50.6239 107.475C50.4289 108.06 50.3239 108.615 50.2939 109.155H50.2339C50.1889 108.675 50.0989 108.03 49.9189 107.475L48.3439 102.81H46.0039ZM59.0889 102.66C56.7789 102.66 55.2189 104.115 55.2189 106.965C55.2189 109.8 56.9739 111.15 59.4189 111.15C60.6789 111.15 61.4739 110.97 62.2989 110.565V108.84C61.3839 109.275 60.5589 109.485 59.5239 109.485C58.2639 109.485 57.5289 108.72 57.4839 107.46H62.7639V106.38C62.7639 103.995 61.3539 102.66 59.0889 102.66ZM59.1039 104.25C60.1389 104.25 60.6489 105 60.6639 105.975H57.5289C57.6339 104.79 58.2189 104.25 59.1039 104.25ZM67.1713 111.15C68.3563 111.15 69.0613 110.61 69.4963 109.935H69.5863L70.0213 111H71.7313V99.6H69.4963V102.225C69.4963 102.87 69.6013 103.545 69.6613 103.86H69.5863C69.1513 103.185 68.4163 102.66 67.2313 102.66C65.3563 102.66 64.0813 104.115 64.0813 106.92C64.0813 108.315 64.3663 109.365 64.9513 110.07C65.5213 110.79 66.2563 111.15 67.1713 111.15ZM67.9513 109.365C66.9313 109.365 66.3463 108.555 66.3463 106.95C66.3463 105.345 66.9463 104.475 67.9213 104.475C69.2413 104.475 69.6463 105.36 69.6463 106.935V107.175C69.6013 108.63 69.1663 109.365 67.9513 109.365Z" fill="black"/>
<path d="M276.646 91V86.89H277.861L280.411 91H282.931L279.781 86.335C280.831 85.855 281.776 84.97 281.776 83.5C281.776 81.34 280.426 80.29 277.501 80.29H274.381V91H276.646ZM276.646 82.15H277.336C278.791 82.15 279.481 82.54 279.481 83.56C279.481 84.535 278.881 85.045 277.381 85.045H276.646V82.15ZM287.479 82.66C285.169 82.66 283.609 84.115 283.609 86.965C283.609 89.8 285.364 91.15 287.809 91.15C289.069 91.15 289.864 90.97 290.689 90.565V88.84C289.774 89.275 288.949 89.485 287.914 89.485C286.654 89.485 285.919 88.72 285.874 87.46H291.154V86.38C291.154 83.995 289.744 82.66 287.479 82.66ZM287.494 84.25C288.529 84.25 289.039 85 289.054 85.975H285.919C286.024 84.79 286.609 84.25 287.494 84.25ZM300.121 94.6V82.81H298.231L298.036 83.86H297.976C297.511 83.185 296.806 82.66 295.606 82.66C294.676 82.66 293.926 83.02 293.341 83.74C292.756 84.46 292.471 85.525 292.471 86.92C292.471 89.695 293.716 91.15 295.561 91.15C296.761 91.15 297.466 90.61 297.886 89.935H297.976C297.916 90.34 297.886 90.76 297.886 91.165V94.6H300.121ZM296.356 89.395C295.291 89.395 294.751 88.585 294.751 86.95C294.751 85.345 295.261 84.475 296.326 84.475C297.631 84.475 298.036 85.36 298.036 86.935V87.205C297.991 88.66 297.601 89.395 296.356 89.395ZM302.413 88.15C302.413 90.25 303.568 91.15 305.323 91.15C306.343 91.15 307.318 90.79 307.843 89.95H307.963L308.263 91H309.973V82.81H307.738V86.665C307.738 88.405 307.333 89.365 305.968 89.365C305.053 89.365 304.648 88.78 304.648 87.595V82.81H302.413V88.15ZM315.691 82.66C313.381 82.66 311.821 84.115 311.821 86.965C311.821 89.8 313.576 91.15 316.021 91.15C317.281 91.15 318.076 90.97 318.901 90.565V88.84C317.986 89.275 317.161 89.485 316.126 89.485C314.866 89.485 314.131 88.72 314.086 87.46H319.366V86.38C319.366 83.995 317.956 82.66 315.691 82.66ZM315.706 84.25C316.741 84.25 317.251 85 317.266 85.975H314.131C314.236 84.79 314.821 84.25 315.706 84.25ZM326.894 88.57C326.894 87.115 326.024 86.59 324.614 86.02C323.174 85.42 322.904 85.255 322.904 84.85C322.904 84.49 323.234 84.31 323.894 84.31C324.629 84.31 325.334 84.565 326.129 84.91L326.804 83.305C325.829 82.84 324.944 82.66 323.924 82.66C321.959 82.66 320.684 83.425 320.684 84.94C320.684 86.335 321.374 86.86 322.919 87.52C324.509 88.18 324.689 88.39 324.689 88.81C324.689 89.23 324.329 89.515 323.474 89.515C322.694 89.515 321.584 89.23 320.699 88.825V90.67C321.524 91.015 322.259 91.15 323.399 91.15C325.724 91.15 326.894 90.235 326.894 88.57ZM328.875 84.49V88.435C328.875 90.55 329.985 91.15 331.44 91.15C332.28 91.15 333.015 91 333.495 90.775V89.11C333.03 89.275 332.58 89.365 332.085 89.365C331.5 89.365 331.11 89.05 331.11 88.435V84.49H333.405V82.81H331.11V81.07H329.685L329.04 82.795L327.81 83.545V84.49H328.875ZM268.716 102.03C269.496 102.03 270.321 102.36 271.116 102.735L271.851 100.89C270.876 100.425 269.781 100.14 268.716 100.14C265.491 100.14 263.691 102.42 263.691 105.66C263.691 108.96 265.176 111.15 268.506 111.15C269.646 111.15 270.501 110.97 271.446 110.595V108.69C270.426 109.05 269.571 109.26 268.716 109.26C266.841 109.26 266.031 107.955 266.031 105.675C266.031 103.41 266.976 102.03 268.716 102.03ZM280.982 106.89C280.982 104.19 279.332 102.66 277.037 102.66C274.562 102.66 273.047 104.175 273.047 106.89C273.047 109.62 274.712 111.15 276.992 111.15C278.222 111.15 279.197 110.775 279.917 110.04C280.622 109.305 280.982 108.255 280.982 106.89ZM275.327 106.89C275.327 105.27 275.822 104.46 277.007 104.46C278.207 104.46 278.702 105.27 278.702 106.89C278.702 108.51 278.207 109.35 277.022 109.35C275.822 109.35 275.327 108.51 275.327 106.89ZM282.829 111H285.064V107.145C285.064 105.405 285.454 104.445 286.699 104.445C287.524 104.445 287.929 105.03 287.929 106.215V111H290.164V106.89C290.164 105.315 290.614 104.445 291.799 104.445C292.624 104.445 293.029 105.03 293.029 106.215V111H295.264V105.66C295.264 103.56 294.304 102.66 292.444 102.66C291.499 102.66 290.524 103.02 290.029 103.86H289.834C289.369 103.035 288.544 102.66 287.344 102.66C286.399 102.66 285.454 103.02 284.959 103.86H284.839L284.539 102.81H282.829V111ZM297.566 114.6H299.801V111.3C299.801 110.925 299.756 110.52 299.681 110.1H299.801C300.236 110.64 300.881 111.15 302.066 111.15C303.911 111.15 305.216 109.695 305.216 106.89C305.216 104.115 303.971 102.66 302.126 102.66C300.941 102.66 300.236 103.215 299.801 103.875H299.696L299.381 102.81H297.566V114.6ZM299.801 106.635C299.816 105.18 300.251 104.445 301.406 104.445C302.426 104.445 302.936 105.255 302.936 106.86C302.936 108.465 302.456 109.335 301.436 109.335C300.191 109.335 299.801 108.45 299.801 106.875V106.635ZM309.293 99.6H307.058V111H309.293V99.6ZM315.003 102.66C312.693 102.66 311.133 104.115 311.133 106.965C311.133 109.8 312.888 111.15 315.333 111.15C316.593 111.15 317.388 110.97 318.213 110.565V108.84C317.298 109.275 316.473 109.485 315.438 109.485C314.178 109.485 313.443 108.72 313.398 107.46H318.678V106.38C318.678 103.995 317.268 102.66 315.003 102.66ZM315.018 104.25C316.053 104.25 316.563 105 316.578 105.975H313.443C313.548 104.79 314.133 104.25 315.018 104.25ZM320.73 104.49V108.435C320.73 110.55 321.84 111.15 323.295 111.15C324.135 111.15 324.87 111 325.35 110.775V109.11C324.885 109.275 324.435 109.365 323.94 109.365C323.355 109.365 322.965 109.05 322.965 108.435V104.49H325.26V102.81H322.965V101.07H321.54L320.895 102.795L319.665 103.545V104.49H320.73ZM330.369 102.66C328.059 102.66 326.499 104.115 326.499 106.965C326.499 109.8 328.254 111.15 330.699 111.15C331.959 111.15 332.754 110.97 333.579 110.565V108.84C332.664 109.275 331.839 109.485 330.804 109.485C329.544 109.485 328.809 108.72 328.764 107.46H334.044V106.38C334.044 103.995 332.634 102.66 330.369 102.66ZM330.384 104.25C331.419 104.25 331.929 105 331.944 105.975H328.809C328.914 104.79 329.499 104.25 330.384 104.25ZM338.452 111.15C339.637 111.15 340.342 110.61 340.777 109.935H340.867L341.302 111H343.012V99.6H340.777V102.225C340.777 102.87 340.882 103.545 340.942 103.86H340.867C340.432 103.185 339.697 102.66 338.512 102.66C336.637 102.66 335.362 104.115 335.362 106.92C335.362 108.315 335.647 109.365 336.232 110.07C336.802 110.79 337.537 111.15 338.452 111.15ZM339.232 109.365C338.212 109.365 337.627 108.555 337.627 106.95C337.627 105.345 338.227 104.475 339.202 104.475C340.522 104.475 340.927 105.36 340.927 106.935V107.175C340.882 108.63 340.447 109.365 339.232 109.365Z" fill="black"/>
<g filter="url(#filter2_d_69_28)">
<circle cx="171.5" cy="33.5" r="28.5" fill="#003366"/>
</g>
<path d="M180.404 41.428H169.208V41.176L172.52 38.08C177.056 33.904 179.684 31.168 179.684 26.884C179.684 22.96 176.552 19.936 171.548 19.936C166.94 19.936 164.564 21.7 162.368 23.608L165.32 27.1C167.372 25.408 169.172 24.472 171.152 24.472C173.06 24.472 174.284 25.48 174.284 27.532C174.284 30.088 172.808 31.636 168.884 35.704L162.44 42.22V46H180.404V41.428Z" fill="#EEEEEE"/>
<path d="M140.845 91H143.29L144.07 88.45H147.97L148.75 91H151.195L147.4 80.245H144.625L140.845 91ZM145.405 84.055C145.51 83.755 145.885 82.48 146.02 81.91C146.17 82.495 146.5 83.56 146.65 84.055L147.43 86.545H144.64L145.405 84.055ZM152.372 94.6H154.607V91.3C154.607 90.925 154.562 90.52 154.487 90.1H154.607C155.042 90.64 155.687 91.15 156.872 91.15C158.717 91.15 160.022 89.695 160.022 86.89C160.022 84.115 158.777 82.66 156.932 82.66C155.747 82.66 155.042 83.215 154.607 83.875H154.502L154.187 82.81H152.372V94.6ZM154.607 86.635C154.622 85.18 155.057 84.445 156.212 84.445C157.232 84.445 157.742 85.255 157.742 86.86C157.742 88.465 157.262 89.335 156.242 89.335C154.997 89.335 154.607 88.45 154.607 86.875V86.635ZM161.864 94.6H164.099V91.3C164.099 90.925 164.054 90.52 163.979 90.1H164.099C164.534 90.64 165.179 91.15 166.364 91.15C168.209 91.15 169.514 89.695 169.514 86.89C169.514 84.115 168.269 82.66 166.424 82.66C165.239 82.66 164.534 83.215 164.099 83.875H163.994L163.679 82.81H161.864V94.6ZM164.099 86.635C164.114 85.18 164.549 84.445 165.704 84.445C166.724 84.445 167.234 85.255 167.234 86.86C167.234 88.465 166.754 89.335 165.734 89.335C164.489 89.335 164.099 88.45 164.099 86.875V86.635ZM175.931 82.66C174.836 82.66 173.966 83.35 173.486 84.19H173.381L173.051 82.81H171.356V91H173.591V86.83C173.591 85.285 174.701 84.745 175.856 84.745C176.051 84.745 176.351 84.775 176.516 84.82L176.681 82.72C176.501 82.675 176.156 82.66 175.931 82.66ZM185.315 86.89C185.315 84.19 183.665 82.66 181.37 82.66C178.895 82.66 177.38 84.175 177.38 86.89C177.38 89.62 179.045 91.15 181.325 91.15C182.555 91.15 183.53 90.775 184.25 90.04C184.955 89.305 185.315 88.255 185.315 86.89ZM179.66 86.89C179.66 85.27 180.155 84.46 181.34 84.46C182.54 84.46 183.035 85.27 183.035 86.89C183.035 88.51 182.54 89.35 181.355 89.35C180.155 89.35 179.66 88.51 179.66 86.89ZM185.992 82.81L189.112 91H191.407L194.527 82.81H192.187L190.612 87.475C190.417 88.06 190.312 88.615 190.282 89.155H190.222C190.177 88.675 190.087 88.03 189.907 87.475L188.332 82.81H185.992ZM197.697 91.15C199.062 91.15 199.707 90.775 200.412 89.89H200.472L200.907 91H202.467V85.54C202.467 83.575 201.267 82.645 199.062 82.645C197.907 82.645 196.782 82.945 195.927 83.38L196.662 84.895C197.427 84.55 198.177 84.295 198.972 84.295C199.767 84.295 200.247 84.685 200.247 85.54V85.9L198.822 85.945C196.377 86.05 195.162 86.815 195.162 88.555C195.162 90.34 196.242 91.15 197.697 91.15ZM197.457 88.57C197.457 87.79 197.937 87.28 199.377 87.235L200.247 87.205V87.88C200.247 88.915 199.497 89.515 198.537 89.515C197.892 89.515 197.457 89.245 197.457 88.57ZM206.989 79.6H204.754V91H206.989V79.6ZM149.763 111V107.19H150.738C153.858 107.19 154.893 105.525 154.893 103.635C154.893 101.55 153.678 100.29 150.918 100.29H147.498V111H149.763ZM149.763 102.15H150.798C151.998 102.15 152.598 102.675 152.598 103.71C152.598 104.85 151.788 105.33 150.513 105.33H149.763V102.15ZM161.312 102.66C160.217 102.66 159.347 103.35 158.867 104.19H158.762L158.432 102.81H156.737V111H158.972V106.83C158.972 105.285 160.082 104.745 161.237 104.745C161.432 104.745 161.732 104.775 161.897 104.82L162.062 102.72C161.882 102.675 161.537 102.66 161.312 102.66ZM170.695 106.89C170.695 104.19 169.045 102.66 166.75 102.66C164.275 102.66 162.76 104.175 162.76 106.89C162.76 109.62 164.425 111.15 166.705 111.15C167.935 111.15 168.91 110.775 169.63 110.04C170.335 109.305 170.695 108.255 170.695 106.89ZM165.04 106.89C165.04 105.27 165.535 104.46 166.72 104.46C167.92 104.46 168.415 105.27 168.415 106.89C168.415 108.51 167.92 109.35 166.735 109.35C165.535 109.35 165.04 108.51 165.04 106.89ZM175.873 111.15C177.013 111.15 177.688 110.97 178.363 110.535V108.63C177.688 109.065 177.013 109.335 176.068 109.335C174.973 109.335 174.328 108.57 174.328 106.935C174.328 105.285 174.913 104.46 176.068 104.46C176.668 104.46 177.253 104.655 177.958 104.94L178.618 103.215C178.003 102.915 177.193 102.66 176.068 102.66C173.698 102.66 172.048 103.95 172.048 106.95C172.048 109.875 173.428 111.15 175.873 111.15ZM183.623 102.66C181.313 102.66 179.753 104.115 179.753 106.965C179.753 109.8 181.508 111.15 183.953 111.15C185.213 111.15 186.008 110.97 186.833 110.565V108.84C185.918 109.275 185.093 109.485 184.058 109.485C182.798 109.485 182.063 108.72 182.018 107.46H187.298V106.38C187.298 103.995 185.888 102.66 183.623 102.66ZM183.638 104.25C184.673 104.25 185.183 105 185.198 105.975H182.063C182.168 104.79 182.753 104.25 183.638 104.25ZM194.825 108.57C194.825 107.115 193.955 106.59 192.545 106.02C191.105 105.42 190.835 105.255 190.835 104.85C190.835 104.49 191.165 104.31 191.825 104.31C192.56 104.31 193.265 104.565 194.06 104.91L194.735 103.305C193.76 102.84 192.875 102.66 191.855 102.66C189.89 102.66 188.615 103.425 188.615 104.94C188.615 106.335 189.305 106.86 190.85 107.52C192.44 108.18 192.62 108.39 192.62 108.81C192.62 109.23 192.26 109.515 191.405 109.515C190.625 109.515 189.515 109.23 188.63 108.825V110.67C189.455 111.015 190.19 111.15 191.33 111.15C193.655 111.15 194.825 110.235 194.825 108.57ZM202.281 108.57C202.281 107.115 201.411 106.59 200.001 106.02C198.561 105.42 198.291 105.255 198.291 104.85C198.291 104.49 198.621 104.31 199.281 104.31C200.016 104.31 200.721 104.565 201.516 104.91L202.191 103.305C201.216 102.84 200.331 102.66 199.311 102.66C197.346 102.66 196.071 103.425 196.071 104.94C196.071 106.335 196.761 106.86 198.306 107.52C199.896 108.18 200.076 108.39 200.076 108.81C200.076 109.23 199.716 109.515 198.861 109.515C198.081 109.515 196.971 109.23 196.086 108.825V110.67C196.911 111.015 197.646 111.15 198.786 111.15C201.111 111.15 202.281 110.235 202.281 108.57Z" fill="black"/>
<defs>
<filter id="filter0_d_69_28" x="7" y="5" width="65" height="65" filterUnits="userSpaceOnUse" color-interpolation-filters="sRGB">
<feFlood flood-opacity="0" result="BackgroundImageFix"/>
<feColorMatrix in="SourceAlpha" type="matrix" values="0 0 0 0 0 0 0 0 0 0 0 0 0 0 0 0 0 0 127 0" result="hardAlpha"/>
<feOffset dy="4"/>
<feGaussianBlur stdDeviation="2"/>
<feComposite in2="hardAlpha" operator="out"/>
<feColorMatrix type="matrix" values="0 0 0 0 0 0 0 0 0 0 0 0 0 0 0 0 0 0 0.25 0"/>
<feBlend mode="normal" in2="BackgroundImageFix" result="effect1_dropShadow_69_28"/>
<feBlend mode="normal" in="SourceGraphic" in2="effect1_dropShadow_69_28" result="shape"/>
</filter>
<filter id="filter1_d_69_28" x="271" y="5" width="65" height="65" filterUnits="userSpaceOnUse" color-interpolation-filters="sRGB">
<feFlood flood-opacity="0" result="BackgroundImageFix"/>
<feColorMatrix in="SourceAlpha" type="matrix" values="0 0 0 0 0 0 0 0 0 0 0 0 0 0 0 0 0 0 127 0" result="hardAlpha"/>
<feOffset dy="4"/>
<feGaussianBlur stdDeviation="2"/>
<feComposite in2="hardAlpha" operator="out"/>
<feColorMatrix type="matrix" values="0 0 0 0 0 0 0 0 0 0 0 0 0 0 0 0 0 0 0.25 0"/>
<feBlend mode="normal" in2="BackgroundImageFix" result="effect1_dropShadow_69_28"/>
<feBlend mode="normal" in="SourceGraphic" in2="effect1_dropShadow_69_28" result="shape"/>
</filter>
<filter id="filter2_d_69_28" x="139" y="5" width="65" height="65" filterUnits="userSpaceOnUse" color-interpolation-filters="sRGB">
<feFlood flood-opacity="0" result="BackgroundImageFix"/>
<feColorMatrix in="SourceAlpha" type="matrix" values="0 0 0 0 0 0 0 0 0 0 0 0 0 0 0 0 0 0 127 0" result="hardAlpha"/>
<feOffset dy="4"/>
<feGaussianBlur stdDeviation="2"/>
<feComposite in2="hardAlpha" operator="out"/>
<feColorMatrix type="matrix" values="0 0 0 0 0 0 0 0 0 0 0 0 0 0 0 0 0 0 0.25 0"/>
<feBlend mode="normal" in2="BackgroundImageFix" result="effect1_dropShadow_69_28"/>
<feBlend mode="normal" in="SourceGraphic" in2="effect1_dropShadow_69_28" result="shape"/>
</filter>
</defs>
</svg>
