<svg width="221" height="114" viewBox="0 0 221 114" fill="none" xmlns="http://www.w3.org/2000/svg">
<rect x="61" y="32" width="85" height="7" fill="#515151"/>
<g filter="url(#filter0_d_118_3)">
<circle cx="39.5" cy="32.5" r="28.5" fill="#FFFEFF"/>
<circle cx="39.5" cy="32.5" r="27" stroke="#313132" stroke-width="3"/>
</g>
<path d="M41.868 19.296H37.404L29.124 25.884L31.752 29.16L34.704 26.784C35.388 26.208 36.324 25.308 36.576 25.02C36.54 25.776 36.504 26.676 36.468 27.684C36.432 28.728 36.432 29.52 36.432 30.132V45H41.868V19.296Z" fill="#313132"/>
<path d="M12.6463 90V85.89H13.8613L16.4113 90H18.9313L15.7813 85.335C16.8313 84.855 17.7763 83.97 17.7763 82.5C17.7763 80.34 16.4263 79.29 13.5013 79.29H10.3813V90H12.6463ZM12.6463 81.15H13.3363C14.7913 81.15 15.4813 81.54 15.4813 82.56C15.4813 83.535 14.8813 84.045 13.3813 84.045H12.6463V81.15ZM23.4786 81.66C21.1686 81.66 19.6086 83.115 19.6086 85.965C19.6086 88.8 21.3636 90.15 23.8086 90.15C25.0686 90.15 25.8636 89.97 26.6886 89.565V87.84C25.7736 88.275 24.9486 88.485 23.9136 88.485C22.6536 88.485 21.9186 87.72 21.8736 86.46H27.1536V85.38C27.1536 82.995 25.7436 81.66 23.4786 81.66ZM23.4936 83.25C24.5286 83.25 25.0386 84 25.0536 84.975H21.9186C22.0236 83.79 22.6086 83.25 23.4936 83.25ZM36.1209 93.6V81.81H34.2309L34.0359 82.86H33.9759C33.5109 82.185 32.8059 81.66 31.6059 81.66C30.6759 81.66 29.9259 82.02 29.3409 82.74C28.7559 83.46 28.4709 84.525 28.4709 85.92C28.4709 88.695 29.7159 90.15 31.5609 90.15C32.7609 90.15 33.4659 89.61 33.8859 88.935H33.9759C33.9159 89.34 33.8859 89.76 33.8859 90.165V93.6H36.1209ZM32.3559 88.395C31.2909 88.395 30.7509 87.585 30.7509 85.95C30.7509 84.345 31.2609 83.475 32.3259 83.475C33.6309 83.475 34.0359 84.36 34.0359 85.935V86.205C33.9909 87.66 33.6009 88.395 32.3559 88.395ZM38.4131 87.15C38.4131 89.25 39.5681 90.15 41.3231 90.15C42.3431 90.15 43.3181 89.79 43.8431 88.95H43.9631L44.2631 90H45.9731V81.81H43.7381V85.665C43.7381 87.405 43.3331 88.365 41.9681 88.365C41.0531 88.365 40.6481 87.78 40.6481 86.595V81.81H38.4131V87.15ZM51.6915 81.66C49.3815 81.66 47.8215 83.115 47.8215 85.965C47.8215 88.8 49.5765 90.15 52.0215 90.15C53.2815 90.15 54.0765 89.97 54.9015 89.565V87.84C53.9865 88.275 53.1615 88.485 52.1265 88.485C50.8665 88.485 50.1315 87.72 50.0865 86.46H55.3665V85.38C55.3665 82.995 53.9565 81.66 51.6915 81.66ZM51.7065 83.25C52.7415 83.25 53.2515 84 53.2665 84.975H50.1315C50.2365 83.79 50.8215 83.25 51.7065 83.25ZM62.8938 87.57C62.8938 86.115 62.0238 85.59 60.6138 85.02C59.1738 84.42 58.9038 84.255 58.9038 83.85C58.9038 83.49 59.2338 83.31 59.8938 83.31C60.6288 83.31 61.3338 83.565 62.1288 83.91L62.8038 82.305C61.8288 81.84 60.9438 81.66 59.9238 81.66C57.9588 81.66 56.6838 82.425 56.6838 83.94C56.6838 85.335 57.3738 85.86 58.9188 86.52C60.5088 87.18 60.6888 87.39 60.6888 87.81C60.6888 88.23 60.3288 88.515 59.4738 88.515C58.6938 88.515 57.5838 88.23 56.6988 87.825V89.67C57.5238 90.015 58.2588 90.15 59.3988 90.15C61.7238 90.15 62.8938 89.235 62.8938 87.57ZM64.8748 83.49V87.435C64.8748 89.55 65.9848 90.15 67.4398 90.15C68.2798 90.15 69.0148 90 69.4948 89.775V88.11C69.0298 88.275 68.5798 88.365 68.0848 88.365C67.4998 88.365 67.1098 88.05 67.1098 87.435V83.49H69.4048V81.81H67.1098V80.07H65.6848L65.0398 81.795L63.8098 82.545V83.49H64.8748ZM9.71656 110V105.89H10.9316L13.4816 110H16.0016L12.8516 105.335C13.9016 104.855 14.8466 103.97 14.8466 102.5C14.8466 100.34 13.4966 99.29 10.5716 99.29H7.45156V110H9.71656ZM9.71656 101.15H10.4066C11.8616 101.15 12.5516 101.54 12.5516 102.56C12.5516 103.535 11.9516 104.045 10.4516 104.045H9.71656V101.15ZM20.5489 101.66C18.2389 101.66 16.6789 103.115 16.6789 105.965C16.6789 108.8 18.4339 110.15 20.8789 110.15C22.1389 110.15 22.9339 109.97 23.7589 109.565V107.84C22.8439 108.275 22.0189 108.485 20.9839 108.485C19.7239 108.485 18.9889 107.72 18.9439 106.46H24.2239V105.38C24.2239 102.995 22.8139 101.66 20.5489 101.66ZM20.5639 103.25C21.5989 103.25 22.1089 104 22.1239 104.975H18.9889C19.0939 103.79 19.6789 103.25 20.5639 103.25ZM29.3662 110.15C30.5062 110.15 31.1812 109.97 31.8562 109.535V107.63C31.1812 108.065 30.5062 108.335 29.5612 108.335C28.4662 108.335 27.8212 107.57 27.8212 105.935C27.8212 104.285 28.4062 103.46 29.5612 103.46C30.1612 103.46 30.7462 103.655 31.4512 103.94L32.1112 102.215C31.4962 101.915 30.6862 101.66 29.5612 101.66C27.1912 101.66 25.5412 102.95 25.5412 105.95C25.5412 108.875 26.9212 110.15 29.3662 110.15ZM37.1163 101.66C34.8063 101.66 33.2463 103.115 33.2463 105.965C33.2463 108.8 35.0013 110.15 37.4463 110.15C38.7063 110.15 39.5013 109.97 40.3263 109.565V107.84C39.4113 108.275 38.5863 108.485 37.5513 108.485C36.2913 108.485 35.5563 107.72 35.5113 106.46H40.7913V105.38C40.7913 102.995 39.3813 101.66 37.1163 101.66ZM37.1313 103.25C38.1663 103.25 38.6763 104 38.6913 104.975H35.5563C35.6613 103.79 36.2463 103.25 37.1313 103.25ZM43.7286 98.6C43.0536 98.6 42.5136 98.855 42.5136 99.695C42.5136 100.52 43.0536 100.79 43.7286 100.79C44.3886 100.79 44.9436 100.52 44.9436 99.695C44.9436 98.855 44.3886 98.6 43.7286 98.6ZM42.6036 101.81V110H44.8386V101.81H42.6036ZM46.0039 101.81L49.1239 110H51.4189L54.5389 101.81H52.1989L50.6239 106.475C50.4289 107.06 50.3239 107.615 50.2939 108.155H50.2339C50.1889 107.675 50.0989 107.03 49.9189 106.475L48.3439 101.81H46.0039ZM59.0889 101.66C56.7789 101.66 55.2189 103.115 55.2189 105.965C55.2189 108.8 56.9739 110.15 59.4189 110.15C60.6789 110.15 61.4739 109.97 62.2989 109.565V107.84C61.3839 108.275 60.5589 108.485 59.5239 108.485C58.2639 108.485 57.5289 107.72 57.4839 106.46H62.7639V105.38C62.7639 102.995 61.3539 101.66 59.0889 101.66ZM59.1039 103.25C60.1389 103.25 60.6489 104 60.6639 104.975H57.5289C57.6339 103.79 58.2189 103.25 59.1039 103.25ZM67.1713 110.15C68.3563 110.15 69.0613 109.61 69.4963 108.935H69.5863L70.0213 110H71.7313V98.6H69.4963V101.225C69.4963 101.87 69.6013 102.545 69.6613 102.86H69.5863C69.1513 102.185 68.4163 101.66 67.2313 101.66C65.3563 101.66 64.0813 103.115 64.0813 105.92C64.0813 107.315 64.3663 108.365 64.9513 109.07C65.5213 109.79 66.2563 110.15 67.1713 110.15ZM67.9513 108.365C66.9313 108.365 66.3463 107.555 66.3463 105.95C66.3463 104.345 66.9463 103.475 67.9213 103.475C69.2413 103.475 69.6463 104.36 69.6463 105.935V106.175C69.6013 107.63 69.1663 108.365 67.9513 108.365Z" fill="black"/>
<path d="M144.646 90V85.89H145.861L148.411 90H150.931L147.781 85.335C148.831 84.855 149.776 83.97 149.776 82.5C149.776 80.34 148.426 79.29 145.501 79.29H142.381V90H144.646ZM144.646 81.15H145.336C146.791 81.15 147.481 81.54 147.481 82.56C147.481 83.535 146.881 84.045 145.381 84.045H144.646V81.15ZM155.479 81.66C153.169 81.66 151.609 83.115 151.609 85.965C151.609 88.8 153.364 90.15 155.809 90.15C157.069 90.15 157.864 89.97 158.689 89.565V87.84C157.774 88.275 156.949 88.485 155.914 88.485C154.654 88.485 153.919 87.72 153.874 86.46H159.154V85.38C159.154 82.995 157.744 81.66 155.479 81.66ZM155.494 83.25C156.529 83.25 157.039 84 157.054 84.975H153.919C154.024 83.79 154.609 83.25 155.494 83.25ZM168.121 93.6V81.81H166.231L166.036 82.86H165.976C165.511 82.185 164.806 81.66 163.606 81.66C162.676 81.66 161.926 82.02 161.341 82.74C160.756 83.46 160.471 84.525 160.471 85.92C160.471 88.695 161.716 90.15 163.561 90.15C164.761 90.15 165.466 89.61 165.886 88.935H165.976C165.916 89.34 165.886 89.76 165.886 90.165V93.6H168.121ZM164.356 88.395C163.291 88.395 162.751 87.585 162.751 85.95C162.751 84.345 163.261 83.475 164.326 83.475C165.631 83.475 166.036 84.36 166.036 85.935V86.205C165.991 87.66 165.601 88.395 164.356 88.395ZM170.413 87.15C170.413 89.25 171.568 90.15 173.323 90.15C174.343 90.15 175.318 89.79 175.843 88.95H175.963L176.263 90H177.973V81.81H175.738V85.665C175.738 87.405 175.333 88.365 173.968 88.365C173.053 88.365 172.648 87.78 172.648 86.595V81.81H170.413V87.15ZM183.691 81.66C181.381 81.66 179.821 83.115 179.821 85.965C179.821 88.8 181.576 90.15 184.021 90.15C185.281 90.15 186.076 89.97 186.901 89.565V87.84C185.986 88.275 185.161 88.485 184.126 88.485C182.866 88.485 182.131 87.72 182.086 86.46H187.366V85.38C187.366 82.995 185.956 81.66 183.691 81.66ZM183.706 83.25C184.741 83.25 185.251 84 185.266 84.975H182.131C182.236 83.79 182.821 83.25 183.706 83.25ZM194.894 87.57C194.894 86.115 194.024 85.59 192.614 85.02C191.174 84.42 190.904 84.255 190.904 83.85C190.904 83.49 191.234 83.31 191.894 83.31C192.629 83.31 193.334 83.565 194.129 83.91L194.804 82.305C193.829 81.84 192.944 81.66 191.924 81.66C189.959 81.66 188.684 82.425 188.684 83.94C188.684 85.335 189.374 85.86 190.919 86.52C192.509 87.18 192.689 87.39 192.689 87.81C192.689 88.23 192.329 88.515 191.474 88.515C190.694 88.515 189.584 88.23 188.699 87.825V89.67C189.524 90.015 190.259 90.15 191.399 90.15C193.724 90.15 194.894 89.235 194.894 87.57ZM196.875 83.49V87.435C196.875 89.55 197.985 90.15 199.44 90.15C200.28 90.15 201.015 90 201.495 89.775V88.11C201.03 88.275 200.58 88.365 200.085 88.365C199.5 88.365 199.11 88.05 199.11 87.435V83.49H201.405V81.81H199.11V80.07H197.685L197.04 81.795L195.81 82.545V83.49H196.875ZM136.716 101.03C137.496 101.03 138.321 101.36 139.116 101.735L139.851 99.89C138.876 99.425 137.781 99.14 136.716 99.14C133.491 99.14 131.691 101.42 131.691 104.66C131.691 107.96 133.176 110.15 136.506 110.15C137.646 110.15 138.501 109.97 139.446 109.595V107.69C138.426 108.05 137.571 108.26 136.716 108.26C134.841 108.26 134.031 106.955 134.031 104.675C134.031 102.41 134.976 101.03 136.716 101.03ZM148.982 105.89C148.982 103.19 147.332 101.66 145.037 101.66C142.562 101.66 141.047 103.175 141.047 105.89C141.047 108.62 142.712 110.15 144.992 110.15C146.222 110.15 147.197 109.775 147.917 109.04C148.622 108.305 148.982 107.255 148.982 105.89ZM143.327 105.89C143.327 104.27 143.822 103.46 145.007 103.46C146.207 103.46 146.702 104.27 146.702 105.89C146.702 107.51 146.207 108.35 145.022 108.35C143.822 108.35 143.327 107.51 143.327 105.89ZM150.829 110H153.064V106.145C153.064 104.405 153.454 103.445 154.699 103.445C155.524 103.445 155.929 104.03 155.929 105.215V110H158.164V105.89C158.164 104.315 158.614 103.445 159.799 103.445C160.624 103.445 161.029 104.03 161.029 105.215V110H163.264V104.66C163.264 102.56 162.304 101.66 160.444 101.66C159.499 101.66 158.524 102.02 158.029 102.86H157.834C157.369 102.035 156.544 101.66 155.344 101.66C154.399 101.66 153.454 102.02 152.959 102.86H152.839L152.539 101.81H150.829V110ZM165.566 113.6H167.801V110.3C167.801 109.925 167.756 109.52 167.681 109.1H167.801C168.236 109.64 168.881 110.15 170.066 110.15C171.911 110.15 173.216 108.695 173.216 105.89C173.216 103.115 171.971 101.66 170.126 101.66C168.941 101.66 168.236 102.215 167.801 102.875H167.696L167.381 101.81H165.566V113.6ZM167.801 105.635C167.816 104.18 168.251 103.445 169.406 103.445C170.426 103.445 170.936 104.255 170.936 105.86C170.936 107.465 170.456 108.335 169.436 108.335C168.191 108.335 167.801 107.45 167.801 105.875V105.635ZM177.293 98.6H175.058V110H177.293V98.6ZM183.003 101.66C180.693 101.66 179.133 103.115 179.133 105.965C179.133 108.8 180.888 110.15 183.333 110.15C184.593 110.15 185.388 109.97 186.213 109.565V107.84C185.298 108.275 184.473 108.485 183.438 108.485C182.178 108.485 181.443 107.72 181.398 106.46H186.678V105.38C186.678 102.995 185.268 101.66 183.003 101.66ZM183.018 103.25C184.053 103.25 184.563 104 184.578 104.975H181.443C181.548 103.79 182.133 103.25 183.018 103.25ZM188.73 103.49V107.435C188.73 109.55 189.84 110.15 191.295 110.15C192.135 110.15 192.87 110 193.35 109.775V108.11C192.885 108.275 192.435 108.365 191.94 108.365C191.355 108.365 190.965 108.05 190.965 107.435V103.49H193.26V101.81H190.965V100.07H189.54L188.895 101.795L187.665 102.545V103.49H188.73ZM198.369 101.66C196.059 101.66 194.499 103.115 194.499 105.965C194.499 108.8 196.254 110.15 198.699 110.15C199.959 110.15 200.754 109.97 201.579 109.565V107.84C200.664 108.275 199.839 108.485 198.804 108.485C197.544 108.485 196.809 107.72 196.764 106.46H202.044V105.38C202.044 102.995 200.634 101.66 198.369 101.66ZM198.384 103.25C199.419 103.25 199.929 104 199.944 104.975H196.809C196.914 103.79 197.499 103.25 198.384 103.25ZM206.452 110.15C207.637 110.15 208.342 109.61 208.777 108.935H208.867L209.302 110H211.012V98.6H208.777V101.225C208.777 101.87 208.882 102.545 208.942 102.86H208.867C208.432 102.185 207.697 101.66 206.512 101.66C204.637 101.66 203.362 103.115 203.362 105.92C203.362 107.315 203.647 108.365 204.232 109.07C204.802 109.79 205.537 110.15 206.452 110.15ZM207.232 108.365C206.212 108.365 205.627 107.555 205.627 105.95C205.627 104.345 206.227 103.475 207.202 103.475C208.522 103.475 208.927 104.36 208.927 105.935V106.175C208.882 107.63 208.447 108.365 207.232 108.365Z" fill="black"/>
<g filter="url(#filter1_d_118_3)">
<circle cx="171.5" cy="32.5" r="28.5" fill="#1F4C79"/>
</g>
<path d="M180.404 40.428H169.208V40.176L172.52 37.08C177.056 32.904 179.684 30.168 179.684 25.884C179.684 21.96 176.552 18.936 171.548 18.936C166.94 18.936 164.564 20.7 162.368 22.608L165.32 26.1C167.372 24.408 169.172 23.472 171.152 23.472C173.06 23.472 174.284 24.48 174.284 26.532C174.284 29.088 172.808 30.636 168.884 34.704L162.44 41.22V45H180.404V40.428Z" fill="#FFFEFF"/>
<defs>
<filter id="filter0_d_118_3" x="7" y="4" width="65" height="65" filterUnits="userSpaceOnUse" color-interpolation-filters="sRGB">
<feFlood flood-opacity="0" result="BackgroundImageFix"/>
<feColorMatrix in="SourceAlpha" type="matrix" values="0 0 0 0 0 0 0 0 0 0 0 0 0 0 0 0 0 0 127 0" result="hardAlpha"/>
<feOffset dy="4"/>
<feGaussianBlur stdDeviation="2"/>
<feComposite in2="hardAlpha" operator="out"/>
<feColorMatrix type="matrix" values="0 0 0 0 0 0 0 0 0 0 0 0 0 0 0 0 0 0 0.25 0"/>
<feBlend mode="normal" in2="BackgroundImageFix" result="effect1_dropShadow_118_3"/>
<feBlend mode="normal" in="SourceGraphic" in2="effect1_dropShadow_118_3" result="shape"/>
</filter>
<filter id="filter1_d_118_3" x="139" y="4" width="65" height="65" filterUnits="userSpaceOnUse" color-interpolation-filters="sRGB">
<feFlood flood-opacity="0" result="BackgroundImageFix"/>
<feColorMatrix in="SourceAlpha" type="matrix" values="0 0 0 0 0 0 0 0 0 0 0 0 0 0 0 0 0 0 127 0" result="hardAlpha"/>
<feOffset dy="4"/>
<feGaussianBlur stdDeviation="2"/>
<feComposite in2="hardAlpha" operator="out"/>
<feColorMatrix type="matrix" values="0 0 0 0 0 0 0 0 0 0 0 0 0 0 0 0 0 0 0.25 0"/>
<feBlend mode="normal" in2="BackgroundImageFix" result="effect1_dropShadow_118_3"/>
<feBlend mode="normal" in="SourceGraphic" in2="effect1_dropShadow_118_3" result="shape"/>
</filter>
</defs>
</svg>
