<svg width="343" height="114" viewBox="0 0 343 114" fill="none" xmlns="http://www.w3.org/2000/svg">
<rect x="61" y="32" width="85" height="7" fill="#515151"/>
<path d="M195.5 32H280.5V39H195.5V32Z" fill="#515151"/>
<g filter="url(#filter0_d_69_30)">
<circle cx="39.5" cy="32.5" r="28.5" fill="#FFFEFF"/>
<circle cx="39.5" cy="32.5" r="27" stroke="#313132" stroke-width="3"/>
</g>
<path d="M41.868 19.296H37.404L29.124 25.884L31.752 29.16L34.704 26.784C35.388 26.208 36.324 25.308 36.576 25.02C36.54 25.776 36.504 26.676 36.468 27.684C36.432 28.728 36.432 29.52 36.432 30.132V45H41.868V19.296Z" fill="#313132"/>
<g filter="url(#filter1_d_69_30)">
<circle cx="303.5" cy="32.5" r="28.5" fill="#003366"/>
</g>
<path d="M311.396 25.056C311.396 21.168 308.084 18.936 302.792 18.936C299.048 18.936 296.42 20.016 294.404 21.456L296.924 25.2C298.112 24.444 299.948 23.328 302.396 23.328C305.024 23.328 306.068 24.408 306.068 26.244C306.068 28.224 305.06 29.7 300.308 29.7H298.328V33.876H300.272C305.096 33.876 306.464 35.064 306.464 37.188C306.464 39.636 305.096 41.04 301.208 41.04C299.084 41.04 296.564 40.464 294.368 39.348V43.956C296.528 44.892 299.012 45.36 301.784 45.36C308.984 45.36 312.152 41.976 312.152 37.512C312.152 34.164 309.92 32.112 305.852 31.572V31.464C307.4 31.068 308.732 30.348 309.812 29.304C310.856 28.26 311.396 26.82 311.396 25.056Z" fill="#EEEEEE"/>
<path d="M12.6463 90V85.89H13.8613L16.4113 90H18.9313L15.7813 85.335C16.8313 84.855 17.7763 83.97 17.7763 82.5C17.7763 80.34 16.4263 79.29 13.5013 79.29H10.3813V90H12.6463ZM12.6463 81.15H13.3363C14.7913 81.15 15.4813 81.54 15.4813 82.56C15.4813 83.535 14.8813 84.045 13.3813 84.045H12.6463V81.15ZM23.4786 81.66C21.1686 81.66 19.6086 83.115 19.6086 85.965C19.6086 88.8 21.3636 90.15 23.8086 90.15C25.0686 90.15 25.8636 89.97 26.6886 89.565V87.84C25.7736 88.275 24.9486 88.485 23.9136 88.485C22.6536 88.485 21.9186 87.72 21.8736 86.46H27.1536V85.38C27.1536 82.995 25.7436 81.66 23.4786 81.66ZM23.4936 83.25C24.5286 83.25 25.0386 84 25.0536 84.975H21.9186C22.0236 83.79 22.6086 83.25 23.4936 83.25ZM36.1209 93.6V81.81H34.2309L34.0359 82.86H33.9759C33.5109 82.185 32.8059 81.66 31.6059 81.66C30.6759 81.66 29.9259 82.02 29.3409 82.74C28.7559 83.46 28.4709 84.525 28.4709 85.92C28.4709 88.695 29.7159 90.15 31.5609 90.15C32.7609 90.15 33.4659 89.61 33.8859 88.935H33.9759C33.9159 89.34 33.8859 89.76 33.8859 90.165V93.6H36.1209ZM32.3559 88.395C31.2909 88.395 30.7509 87.585 30.7509 85.95C30.7509 84.345 31.2609 83.475 32.3259 83.475C33.6309 83.475 34.0359 84.36 34.0359 85.935V86.205C33.9909 87.66 33.6009 88.395 32.3559 88.395ZM38.4131 87.15C38.4131 89.25 39.5681 90.15 41.3231 90.15C42.3431 90.15 43.3181 89.79 43.8431 88.95H43.9631L44.2631 90H45.9731V81.81H43.7381V85.665C43.7381 87.405 43.3331 88.365 41.9681 88.365C41.0531 88.365 40.6481 87.78 40.6481 86.595V81.81H38.4131V87.15ZM51.6915 81.66C49.3815 81.66 47.8215 83.115 47.8215 85.965C47.8215 88.8 49.5765 90.15 52.0215 90.15C53.2815 90.15 54.0765 89.97 54.9015 89.565V87.84C53.9865 88.275 53.1615 88.485 52.1265 88.485C50.8665 88.485 50.1315 87.72 50.0865 86.46H55.3665V85.38C55.3665 82.995 53.9565 81.66 51.6915 81.66ZM51.7065 83.25C52.7415 83.25 53.2515 84 53.2665 84.975H50.1315C50.2365 83.79 50.8215 83.25 51.7065 83.25ZM62.8938 87.57C62.8938 86.115 62.0238 85.59 60.6138 85.02C59.1738 84.42 58.9038 84.255 58.9038 83.85C58.9038 83.49 59.2338 83.31 59.8938 83.31C60.6288 83.31 61.3338 83.565 62.1288 83.91L62.8038 82.305C61.8288 81.84 60.9438 81.66 59.9238 81.66C57.9588 81.66 56.6838 82.425 56.6838 83.94C56.6838 85.335 57.3738 85.86 58.9188 86.52C60.5088 87.18 60.6888 87.39 60.6888 87.81C60.6888 88.23 60.3288 88.515 59.4738 88.515C58.6938 88.515 57.5838 88.23 56.6988 87.825V89.67C57.5238 90.015 58.2588 90.15 59.3988 90.15C61.7238 90.15 62.8938 89.235 62.8938 87.57ZM64.8748 83.49V87.435C64.8748 89.55 65.9848 90.15 67.4398 90.15C68.2798 90.15 69.0148 90 69.4948 89.775V88.11C69.0298 88.275 68.5798 88.365 68.0848 88.365C67.4998 88.365 67.1098 88.05 67.1098 87.435V83.49H69.4048V81.81H67.1098V80.07H65.6848L65.0398 81.795L63.8098 82.545V83.49H64.8748ZM9.71656 110V105.89H10.9316L13.4816 110H16.0016L12.8516 105.335C13.9016 104.855 14.8466 103.97 14.8466 102.5C14.8466 100.34 13.4966 99.29 10.5716 99.29H7.45156V110H9.71656ZM9.71656 101.15H10.4066C11.8616 101.15 12.5516 101.54 12.5516 102.56C12.5516 103.535 11.9516 104.045 10.4516 104.045H9.71656V101.15ZM20.5489 101.66C18.2389 101.66 16.6789 103.115 16.6789 105.965C16.6789 108.8 18.4339 110.15 20.8789 110.15C22.1389 110.15 22.9339 109.97 23.7589 109.565V107.84C22.8439 108.275 22.0189 108.485 20.9839 108.485C19.7239 108.485 18.9889 107.72 18.9439 106.46H24.2239V105.38C24.2239 102.995 22.8139 101.66 20.5489 101.66ZM20.5639 103.25C21.5989 103.25 22.1089 104 22.1239 104.975H18.9889C19.0939 103.79 19.6789 103.25 20.5639 103.25ZM29.3662 110.15C30.5062 110.15 31.1812 109.97 31.8562 109.535V107.63C31.1812 108.065 30.5062 108.335 29.5612 108.335C28.4662 108.335 27.8212 107.57 27.8212 105.935C27.8212 104.285 28.4062 103.46 29.5612 103.46C30.1612 103.46 30.7462 103.655 31.4512 103.94L32.1112 102.215C31.4962 101.915 30.6862 101.66 29.5612 101.66C27.1912 101.66 25.5412 102.95 25.5412 105.95C25.5412 108.875 26.9212 110.15 29.3662 110.15ZM37.1163 101.66C34.8063 101.66 33.2463 103.115 33.2463 105.965C33.2463 108.8 35.0013 110.15 37.4463 110.15C38.7063 110.15 39.5013 109.97 40.3263 109.565V107.84C39.4113 108.275 38.5863 108.485 37.5513 108.485C36.2913 108.485 35.5563 107.72 35.5113 106.46H40.7913V105.38C40.7913 102.995 39.3813 101.66 37.1163 101.66ZM37.1313 103.25C38.1663 103.25 38.6763 104 38.6913 104.975H35.5563C35.6613 103.79 36.2463 103.25 37.1313 103.25ZM43.7286 98.6C43.0536 98.6 42.5136 98.855 42.5136 99.695C42.5136 100.52 43.0536 100.79 43.7286 100.79C44.3886 100.79 44.9436 100.52 44.9436 99.695C44.9436 98.855 44.3886 98.6 43.7286 98.6ZM42.6036 101.81V110H44.8386V101.81H42.6036ZM46.0039 101.81L49.1239 110H51.4189L54.5389 101.81H52.1989L50.6239 106.475C50.4289 107.06 50.3239 107.615 50.2939 108.155H50.2339C50.1889 107.675 50.0989 107.03 49.9189 106.475L48.3439 101.81H46.0039ZM59.0889 101.66C56.7789 101.66 55.2189 103.115 55.2189 105.965C55.2189 108.8 56.9739 110.15 59.4189 110.15C60.6789 110.15 61.4739 109.97 62.2989 109.565V107.84C61.3839 108.275 60.5589 108.485 59.5239 108.485C58.2639 108.485 57.5289 107.72 57.4839 106.46H62.7639V105.38C62.7639 102.995 61.3539 101.66 59.0889 101.66ZM59.1039 103.25C60.1389 103.25 60.6489 104 60.6639 104.975H57.5289C57.6339 103.79 58.2189 103.25 59.1039 103.25ZM67.1713 110.15C68.3563 110.15 69.0613 109.61 69.4963 108.935H69.5863L70.0213 110H71.7313V98.6H69.4963V101.225C69.4963 101.87 69.6013 102.545 69.6613 102.86H69.5863C69.1513 102.185 68.4163 101.66 67.2313 101.66C65.3563 101.66 64.0813 103.115 64.0813 105.92C64.0813 107.315 64.3663 108.365 64.9513 109.07C65.5213 109.79 66.2563 110.15 67.1713 110.15ZM67.9513 108.365C66.9313 108.365 66.3463 107.555 66.3463 105.95C66.3463 104.345 66.9463 103.475 67.9213 103.475C69.2413 103.475 69.6463 104.36 69.6463 105.935V106.175C69.6013 107.63 69.1663 108.365 67.9513 108.365Z" fill="black"/>
<path d="M271.646 90V85.89H272.861L275.411 90H277.931L274.781 85.335C275.831 84.855 276.776 83.97 276.776 82.5C276.776 80.34 275.426 79.29 272.501 79.29H269.381V90H271.646ZM271.646 81.15H272.336C273.791 81.15 274.481 81.54 274.481 82.56C274.481 83.535 273.881 84.045 272.381 84.045H271.646V81.15ZM282.479 81.66C280.169 81.66 278.609 83.115 278.609 85.965C278.609 88.8 280.364 90.15 282.809 90.15C284.069 90.15 284.864 89.97 285.689 89.565V87.84C284.774 88.275 283.949 88.485 282.914 88.485C281.654 88.485 280.919 87.72 280.874 86.46H286.154V85.38C286.154 82.995 284.744 81.66 282.479 81.66ZM282.494 83.25C283.529 83.25 284.039 84 284.054 84.975H280.919C281.024 83.79 281.609 83.25 282.494 83.25ZM295.121 93.6V81.81H293.231L293.036 82.86H292.976C292.511 82.185 291.806 81.66 290.606 81.66C289.676 81.66 288.926 82.02 288.341 82.74C287.756 83.46 287.471 84.525 287.471 85.92C287.471 88.695 288.716 90.15 290.561 90.15C291.761 90.15 292.466 89.61 292.886 88.935H292.976C292.916 89.34 292.886 89.76 292.886 90.165V93.6H295.121ZM291.356 88.395C290.291 88.395 289.751 87.585 289.751 85.95C289.751 84.345 290.261 83.475 291.326 83.475C292.631 83.475 293.036 84.36 293.036 85.935V86.205C292.991 87.66 292.601 88.395 291.356 88.395ZM297.413 87.15C297.413 89.25 298.568 90.15 300.323 90.15C301.343 90.15 302.318 89.79 302.843 88.95H302.963L303.263 90H304.973V81.81H302.738V85.665C302.738 87.405 302.333 88.365 300.968 88.365C300.053 88.365 299.648 87.78 299.648 86.595V81.81H297.413V87.15ZM310.691 81.66C308.381 81.66 306.821 83.115 306.821 85.965C306.821 88.8 308.576 90.15 311.021 90.15C312.281 90.15 313.076 89.97 313.901 89.565V87.84C312.986 88.275 312.161 88.485 311.126 88.485C309.866 88.485 309.131 87.72 309.086 86.46H314.366V85.38C314.366 82.995 312.956 81.66 310.691 81.66ZM310.706 83.25C311.741 83.25 312.251 84 312.266 84.975H309.131C309.236 83.79 309.821 83.25 310.706 83.25ZM321.894 87.57C321.894 86.115 321.024 85.59 319.614 85.02C318.174 84.42 317.904 84.255 317.904 83.85C317.904 83.49 318.234 83.31 318.894 83.31C319.629 83.31 320.334 83.565 321.129 83.91L321.804 82.305C320.829 81.84 319.944 81.66 318.924 81.66C316.959 81.66 315.684 82.425 315.684 83.94C315.684 85.335 316.374 85.86 317.919 86.52C319.509 87.18 319.689 87.39 319.689 87.81C319.689 88.23 319.329 88.515 318.474 88.515C317.694 88.515 316.584 88.23 315.699 87.825V89.67C316.524 90.015 317.259 90.15 318.399 90.15C320.724 90.15 321.894 89.235 321.894 87.57ZM323.875 83.49V87.435C323.875 89.55 324.985 90.15 326.44 90.15C327.28 90.15 328.015 90 328.495 89.775V88.11C328.03 88.275 327.58 88.365 327.085 88.365C326.5 88.365 326.11 88.05 326.11 87.435V83.49H328.405V81.81H326.11V80.07H324.685L324.04 81.795L322.81 82.545V83.49H323.875ZM263.716 101.03C264.496 101.03 265.321 101.36 266.116 101.735L266.851 99.89C265.876 99.425 264.781 99.14 263.716 99.14C260.491 99.14 258.691 101.42 258.691 104.66C258.691 107.96 260.176 110.15 263.506 110.15C264.646 110.15 265.501 109.97 266.446 109.595V107.69C265.426 108.05 264.571 108.26 263.716 108.26C261.841 108.26 261.031 106.955 261.031 104.675C261.031 102.41 261.976 101.03 263.716 101.03ZM275.982 105.89C275.982 103.19 274.332 101.66 272.037 101.66C269.562 101.66 268.047 103.175 268.047 105.89C268.047 108.62 269.712 110.15 271.992 110.15C273.222 110.15 274.197 109.775 274.917 109.04C275.622 108.305 275.982 107.255 275.982 105.89ZM270.327 105.89C270.327 104.27 270.822 103.46 272.007 103.46C273.207 103.46 273.702 104.27 273.702 105.89C273.702 107.51 273.207 108.35 272.022 108.35C270.822 108.35 270.327 107.51 270.327 105.89ZM277.829 110H280.064V106.145C280.064 104.405 280.454 103.445 281.699 103.445C282.524 103.445 282.929 104.03 282.929 105.215V110H285.164V105.89C285.164 104.315 285.614 103.445 286.799 103.445C287.624 103.445 288.029 104.03 288.029 105.215V110H290.264V104.66C290.264 102.56 289.304 101.66 287.444 101.66C286.499 101.66 285.524 102.02 285.029 102.86H284.834C284.369 102.035 283.544 101.66 282.344 101.66C281.399 101.66 280.454 102.02 279.959 102.86H279.839L279.539 101.81H277.829V110ZM292.566 113.6H294.801V110.3C294.801 109.925 294.756 109.52 294.681 109.1H294.801C295.236 109.64 295.881 110.15 297.066 110.15C298.911 110.15 300.216 108.695 300.216 105.89C300.216 103.115 298.971 101.66 297.126 101.66C295.941 101.66 295.236 102.215 294.801 102.875H294.696L294.381 101.81H292.566V113.6ZM294.801 105.635C294.816 104.18 295.251 103.445 296.406 103.445C297.426 103.445 297.936 104.255 297.936 105.86C297.936 107.465 297.456 108.335 296.436 108.335C295.191 108.335 294.801 107.45 294.801 105.875V105.635ZM304.293 98.6H302.058V110H304.293V98.6ZM310.003 101.66C307.693 101.66 306.133 103.115 306.133 105.965C306.133 108.8 307.888 110.15 310.333 110.15C311.593 110.15 312.388 109.97 313.213 109.565V107.84C312.298 108.275 311.473 108.485 310.438 108.485C309.178 108.485 308.443 107.72 308.398 106.46H313.678V105.38C313.678 102.995 312.268 101.66 310.003 101.66ZM310.018 103.25C311.053 103.25 311.563 104 311.578 104.975H308.443C308.548 103.79 309.133 103.25 310.018 103.25ZM315.73 103.49V107.435C315.73 109.55 316.84 110.15 318.295 110.15C319.135 110.15 319.87 110 320.35 109.775V108.11C319.885 108.275 319.435 108.365 318.94 108.365C318.355 108.365 317.965 108.05 317.965 107.435V103.49H320.26V101.81H317.965V100.07H316.54L315.895 101.795L314.665 102.545V103.49H315.73ZM325.369 101.66C323.059 101.66 321.499 103.115 321.499 105.965C321.499 108.8 323.254 110.15 325.699 110.15C326.959 110.15 327.754 109.97 328.579 109.565V107.84C327.664 108.275 326.839 108.485 325.804 108.485C324.544 108.485 323.809 107.72 323.764 106.46H329.044V105.38C329.044 102.995 327.634 101.66 325.369 101.66ZM325.384 103.25C326.419 103.25 326.929 104 326.944 104.975H323.809C323.914 103.79 324.499 103.25 325.384 103.25ZM333.452 110.15C334.637 110.15 335.342 109.61 335.777 108.935H335.867L336.302 110H338.012V98.6H335.777V101.225C335.777 101.87 335.882 102.545 335.942 102.86H335.867C335.432 102.185 334.697 101.66 333.512 101.66C331.637 101.66 330.362 103.115 330.362 105.92C330.362 107.315 330.647 108.365 331.232 109.07C331.802 109.79 332.537 110.15 333.452 110.15ZM334.232 108.365C333.212 108.365 332.627 107.555 332.627 105.95C332.627 104.345 333.227 103.475 334.202 103.475C335.522 103.475 335.927 104.36 335.927 105.935V106.175C335.882 107.63 335.447 108.365 334.232 108.365Z" fill="black"/>
<g filter="url(#filter2_d_69_30)">
<circle cx="171.5" cy="32.5" r="28.5" fill="#FFFEFF"/>
<circle cx="171.5" cy="32.5" r="27" stroke="#313132" stroke-width="3"/>
</g>
<path d="M180.404 40.428H169.208V40.176L172.52 37.08C177.056 32.904 179.684 30.168 179.684 25.884C179.684 21.96 176.552 18.936 171.548 18.936C166.94 18.936 164.564 20.7 162.368 22.608L165.32 26.1C167.372 24.408 169.172 23.472 171.152 23.472C173.06 23.472 174.284 24.48 174.284 26.532C174.284 29.088 172.808 30.636 168.884 34.704L162.44 41.22V45H180.404V40.428Z" fill="#313132"/>
<path d="M140.845 90H143.29L144.07 87.45H147.97L148.75 90H151.195L147.4 79.245H144.625L140.845 90ZM145.405 83.055C145.51 82.755 145.885 81.48 146.02 80.91C146.17 81.495 146.5 82.56 146.65 83.055L147.43 85.545H144.64L145.405 83.055ZM152.372 93.6H154.607V90.3C154.607 89.925 154.562 89.52 154.487 89.1H154.607C155.042 89.64 155.687 90.15 156.872 90.15C158.717 90.15 160.022 88.695 160.022 85.89C160.022 83.115 158.777 81.66 156.932 81.66C155.747 81.66 155.042 82.215 154.607 82.875H154.502L154.187 81.81H152.372V93.6ZM154.607 85.635C154.622 84.18 155.057 83.445 156.212 83.445C157.232 83.445 157.742 84.255 157.742 85.86C157.742 87.465 157.262 88.335 156.242 88.335C154.997 88.335 154.607 87.45 154.607 85.875V85.635ZM161.864 93.6H164.099V90.3C164.099 89.925 164.054 89.52 163.979 89.1H164.099C164.534 89.64 165.179 90.15 166.364 90.15C168.209 90.15 169.514 88.695 169.514 85.89C169.514 83.115 168.269 81.66 166.424 81.66C165.239 81.66 164.534 82.215 164.099 82.875H163.994L163.679 81.81H161.864V93.6ZM164.099 85.635C164.114 84.18 164.549 83.445 165.704 83.445C166.724 83.445 167.234 84.255 167.234 85.86C167.234 87.465 166.754 88.335 165.734 88.335C164.489 88.335 164.099 87.45 164.099 85.875V85.635ZM175.931 81.66C174.836 81.66 173.966 82.35 173.486 83.19H173.381L173.051 81.81H171.356V90H173.591V85.83C173.591 84.285 174.701 83.745 175.856 83.745C176.051 83.745 176.351 83.775 176.516 83.82L176.681 81.72C176.501 81.675 176.156 81.66 175.931 81.66ZM185.315 85.89C185.315 83.19 183.665 81.66 181.37 81.66C178.895 81.66 177.38 83.175 177.38 85.89C177.38 88.62 179.045 90.15 181.325 90.15C182.555 90.15 183.53 89.775 184.25 89.04C184.955 88.305 185.315 87.255 185.315 85.89ZM179.66 85.89C179.66 84.27 180.155 83.46 181.34 83.46C182.54 83.46 183.035 84.27 183.035 85.89C183.035 87.51 182.54 88.35 181.355 88.35C180.155 88.35 179.66 87.51 179.66 85.89ZM185.992 81.81L189.112 90H191.407L194.527 81.81H192.187L190.612 86.475C190.417 87.06 190.312 87.615 190.282 88.155H190.222C190.177 87.675 190.087 87.03 189.907 86.475L188.332 81.81H185.992ZM197.697 90.15C199.062 90.15 199.707 89.775 200.412 88.89H200.472L200.907 90H202.467V84.54C202.467 82.575 201.267 81.645 199.062 81.645C197.907 81.645 196.782 81.945 195.927 82.38L196.662 83.895C197.427 83.55 198.177 83.295 198.972 83.295C199.767 83.295 200.247 83.685 200.247 84.54V84.9L198.822 84.945C196.377 85.05 195.162 85.815 195.162 87.555C195.162 89.34 196.242 90.15 197.697 90.15ZM197.457 87.57C197.457 86.79 197.937 86.28 199.377 86.235L200.247 86.205V86.88C200.247 87.915 199.497 88.515 198.537 88.515C197.892 88.515 197.457 88.245 197.457 87.57ZM206.989 78.6H204.754V90H206.989V78.6ZM149.763 110V106.19H150.738C153.858 106.19 154.893 104.525 154.893 102.635C154.893 100.55 153.678 99.29 150.918 99.29H147.498V110H149.763ZM149.763 101.15H150.798C151.998 101.15 152.598 101.675 152.598 102.71C152.598 103.85 151.788 104.33 150.513 104.33H149.763V101.15ZM161.312 101.66C160.217 101.66 159.347 102.35 158.867 103.19H158.762L158.432 101.81H156.737V110H158.972V105.83C158.972 104.285 160.082 103.745 161.237 103.745C161.432 103.745 161.732 103.775 161.897 103.82L162.062 101.72C161.882 101.675 161.537 101.66 161.312 101.66ZM170.695 105.89C170.695 103.19 169.045 101.66 166.75 101.66C164.275 101.66 162.76 103.175 162.76 105.89C162.76 108.62 164.425 110.15 166.705 110.15C167.935 110.15 168.91 109.775 169.63 109.04C170.335 108.305 170.695 107.255 170.695 105.89ZM165.04 105.89C165.04 104.27 165.535 103.46 166.72 103.46C167.92 103.46 168.415 104.27 168.415 105.89C168.415 107.51 167.92 108.35 166.735 108.35C165.535 108.35 165.04 107.51 165.04 105.89ZM175.873 110.15C177.013 110.15 177.688 109.97 178.363 109.535V107.63C177.688 108.065 177.013 108.335 176.068 108.335C174.973 108.335 174.328 107.57 174.328 105.935C174.328 104.285 174.913 103.46 176.068 103.46C176.668 103.46 177.253 103.655 177.958 103.94L178.618 102.215C178.003 101.915 177.193 101.66 176.068 101.66C173.698 101.66 172.048 102.95 172.048 105.95C172.048 108.875 173.428 110.15 175.873 110.15ZM183.623 101.66C181.313 101.66 179.753 103.115 179.753 105.965C179.753 108.8 181.508 110.15 183.953 110.15C185.213 110.15 186.008 109.97 186.833 109.565V107.84C185.918 108.275 185.093 108.485 184.058 108.485C182.798 108.485 182.063 107.72 182.018 106.46H187.298V105.38C187.298 102.995 185.888 101.66 183.623 101.66ZM183.638 103.25C184.673 103.25 185.183 104 185.198 104.975H182.063C182.168 103.79 182.753 103.25 183.638 103.25ZM194.825 107.57C194.825 106.115 193.955 105.59 192.545 105.02C191.105 104.42 190.835 104.255 190.835 103.85C190.835 103.49 191.165 103.31 191.825 103.31C192.56 103.31 193.265 103.565 194.06 103.91L194.735 102.305C193.76 101.84 192.875 101.66 191.855 101.66C189.89 101.66 188.615 102.425 188.615 103.94C188.615 105.335 189.305 105.86 190.85 106.52C192.44 107.18 192.62 107.39 192.62 107.81C192.62 108.23 192.26 108.515 191.405 108.515C190.625 108.515 189.515 108.23 188.63 107.825V109.67C189.455 110.015 190.19 110.15 191.33 110.15C193.655 110.15 194.825 109.235 194.825 107.57ZM202.281 107.57C202.281 106.115 201.411 105.59 200.001 105.02C198.561 104.42 198.291 104.255 198.291 103.85C198.291 103.49 198.621 103.31 199.281 103.31C200.016 103.31 200.721 103.565 201.516 103.91L202.191 102.305C201.216 101.84 200.331 101.66 199.311 101.66C197.346 101.66 196.071 102.425 196.071 103.94C196.071 105.335 196.761 105.86 198.306 106.52C199.896 107.18 200.076 107.39 200.076 107.81C200.076 108.23 199.716 108.515 198.861 108.515C198.081 108.515 196.971 108.23 196.086 107.825V109.67C196.911 110.015 197.646 110.15 198.786 110.15C201.111 110.15 202.281 109.235 202.281 107.57Z" fill="black"/>
<defs>
<filter id="filter0_d_69_30" x="7" y="4" width="65" height="65" filterUnits="userSpaceOnUse" color-interpolation-filters="sRGB">
<feFlood flood-opacity="0" result="BackgroundImageFix"/>
<feColorMatrix in="SourceAlpha" type="matrix" values="0 0 0 0 0 0 0 0 0 0 0 0 0 0 0 0 0 0 127 0" result="hardAlpha"/>
<feOffset dy="4"/>
<feGaussianBlur stdDeviation="2"/>
<feComposite in2="hardAlpha" operator="out"/>
<feColorMatrix type="matrix" values="0 0 0 0 0 0 0 0 0 0 0 0 0 0 0 0 0 0 0.25 0"/>
<feBlend mode="normal" in2="BackgroundImageFix" result="effect1_dropShadow_69_30"/>
<feBlend mode="normal" in="SourceGraphic" in2="effect1_dropShadow_69_30" result="shape"/>
</filter>
<filter id="filter1_d_69_30" x="271" y="4" width="65" height="65" filterUnits="userSpaceOnUse" color-interpolation-filters="sRGB">
<feFlood flood-opacity="0" result="BackgroundImageFix"/>
<feColorMatrix in="SourceAlpha" type="matrix" values="0 0 0 0 0 0 0 0 0 0 0 0 0 0 0 0 0 0 127 0" result="hardAlpha"/>
<feOffset dy="4"/>
<feGaussianBlur stdDeviation="2"/>
<feComposite in2="hardAlpha" operator="out"/>
<feColorMatrix type="matrix" values="0 0 0 0 0 0 0 0 0 0 0 0 0 0 0 0 0 0 0.25 0"/>
<feBlend mode="normal" in2="BackgroundImageFix" result="effect1_dropShadow_69_30"/>
<feBlend mode="normal" in="SourceGraphic" in2="effect1_dropShadow_69_30" result="shape"/>
</filter>
<filter id="filter2_d_69_30" x="139" y="4" width="65" height="65" filterUnits="userSpaceOnUse" color-interpolation-filters="sRGB">
<feFlood flood-opacity="0" result="BackgroundImageFix"/>
<feColorMatrix in="SourceAlpha" type="matrix" values="0 0 0 0 0 0 0 0 0 0 0 0 0 0 0 0 0 0 127 0" result="hardAlpha"/>
<feOffset dy="4"/>
<feGaussianBlur stdDeviation="2"/>
<feComposite in2="hardAlpha" operator="out"/>
<feColorMatrix type="matrix" values="0 0 0 0 0 0 0 0 0 0 0 0 0 0 0 0 0 0 0.25 0"/>
<feBlend mode="normal" in2="BackgroundImageFix" result="effect1_dropShadow_69_30"/>
<feBlend mode="normal" in="SourceGraphic" in2="effect1_dropShadow_69_30" result="shape"/>
</filter>
</defs>
</svg>
