<svg width="351" height="116" viewBox="0 0 351 116" fill="none" xmlns="http://www.w3.org/2000/svg">
<rect x="61" y="34" width="85" height="7" fill="#515151"/>
<path d="M195.5 34H280.5V41H195.5V34Z" fill="#515151"/>
<g filter="url(#filter0_d_69_26)">
<circle cx="39.5" cy="34.5" r="28.5" fill="#003366"/>
</g>
<path d="M41.868 21.296H37.404L29.124 27.884L31.752 31.16L34.704 28.784C35.388 28.208 36.324 27.308 36.576 27.02C36.54 27.776 36.504 28.676 36.468 29.684C36.432 30.728 36.432 31.52 36.432 32.132V47H41.868V21.296Z" fill="#EEEEEE"/>
<g filter="url(#filter1_d_69_26)">
<circle cx="303.5" cy="34.5" r="28.5" fill="#FFFEFF"/>
<circle cx="303.5" cy="34.5" r="27" stroke="#313132" stroke-width="3"/>
</g>
<path d="M311.396 27.056C311.396 23.168 308.084 20.936 302.792 20.936C299.048 20.936 296.42 22.016 294.404 23.456L296.924 27.2C298.112 26.444 299.948 25.328 302.396 25.328C305.024 25.328 306.068 26.408 306.068 28.244C306.068 30.224 305.06 31.7 300.308 31.7H298.328V35.876H300.272C305.096 35.876 306.464 37.064 306.464 39.188C306.464 41.636 305.096 43.04 301.208 43.04C299.084 43.04 296.564 42.464 294.368 41.348V45.956C296.528 46.892 299.012 47.36 301.784 47.36C308.984 47.36 312.152 43.976 312.152 39.512C312.152 36.164 309.92 34.112 305.852 33.572V33.464C307.4 33.068 308.732 32.348 309.812 31.304C310.856 30.26 311.396 28.82 311.396 27.056Z" fill="#313132"/>
<path d="M12.6463 92V87.89H13.8613L16.4113 92H18.9313L15.7813 87.335C16.8313 86.855 17.7763 85.97 17.7763 84.5C17.7763 82.34 16.4263 81.29 13.5013 81.29H10.3813V92H12.6463ZM12.6463 83.15H13.3363C14.7913 83.15 15.4813 83.54 15.4813 84.56C15.4813 85.535 14.8813 86.045 13.3813 86.045H12.6463V83.15ZM23.4786 83.66C21.1686 83.66 19.6086 85.115 19.6086 87.965C19.6086 90.8 21.3636 92.15 23.8086 92.15C25.0686 92.15 25.8636 91.97 26.6886 91.565V89.84C25.7736 90.275 24.9486 90.485 23.9136 90.485C22.6536 90.485 21.9186 89.72 21.8736 88.46H27.1536V87.38C27.1536 84.995 25.7436 83.66 23.4786 83.66ZM23.4936 85.25C24.5286 85.25 25.0386 86 25.0536 86.975H21.9186C22.0236 85.79 22.6086 85.25 23.4936 85.25ZM36.1209 95.6V83.81H34.2309L34.0359 84.86H33.9759C33.5109 84.185 32.8059 83.66 31.6059 83.66C30.6759 83.66 29.9259 84.02 29.3409 84.74C28.7559 85.46 28.4709 86.525 28.4709 87.92C28.4709 90.695 29.7159 92.15 31.5609 92.15C32.7609 92.15 33.4659 91.61 33.8859 90.935H33.9759C33.9159 91.34 33.8859 91.76 33.8859 92.165V95.6H36.1209ZM32.3559 90.395C31.2909 90.395 30.7509 89.585 30.7509 87.95C30.7509 86.345 31.2609 85.475 32.3259 85.475C33.6309 85.475 34.0359 86.36 34.0359 87.935V88.205C33.9909 89.66 33.6009 90.395 32.3559 90.395ZM38.4131 89.15C38.4131 91.25 39.5681 92.15 41.3231 92.15C42.3431 92.15 43.3181 91.79 43.8431 90.95H43.9631L44.2631 92H45.9731V83.81H43.7381V87.665C43.7381 89.405 43.3331 90.365 41.9681 90.365C41.0531 90.365 40.6481 89.78 40.6481 88.595V83.81H38.4131V89.15ZM51.6915 83.66C49.3815 83.66 47.8215 85.115 47.8215 87.965C47.8215 90.8 49.5765 92.15 52.0215 92.15C53.2815 92.15 54.0765 91.97 54.9015 91.565V89.84C53.9865 90.275 53.1615 90.485 52.1265 90.485C50.8665 90.485 50.1315 89.72 50.0865 88.46H55.3665V87.38C55.3665 84.995 53.9565 83.66 51.6915 83.66ZM51.7065 85.25C52.7415 85.25 53.2515 86 53.2665 86.975H50.1315C50.2365 85.79 50.8215 85.25 51.7065 85.25ZM62.8938 89.57C62.8938 88.115 62.0238 87.59 60.6138 87.02C59.1738 86.42 58.9038 86.255 58.9038 85.85C58.9038 85.49 59.2338 85.31 59.8938 85.31C60.6288 85.31 61.3338 85.565 62.1288 85.91L62.8038 84.305C61.8288 83.84 60.9438 83.66 59.9238 83.66C57.9588 83.66 56.6838 84.425 56.6838 85.94C56.6838 87.335 57.3738 87.86 58.9188 88.52C60.5088 89.18 60.6888 89.39 60.6888 89.81C60.6888 90.23 60.3288 90.515 59.4738 90.515C58.6938 90.515 57.5838 90.23 56.6988 89.825V91.67C57.5238 92.015 58.2588 92.15 59.3988 92.15C61.7238 92.15 62.8938 91.235 62.8938 89.57ZM64.8748 85.49V89.435C64.8748 91.55 65.9848 92.15 67.4398 92.15C68.2798 92.15 69.0148 92 69.4948 91.775V90.11C69.0298 90.275 68.5798 90.365 68.0848 90.365C67.4998 90.365 67.1098 90.05 67.1098 89.435V85.49H69.4048V83.81H67.1098V82.07H65.6848L65.0398 83.795L63.8098 84.545V85.49H64.8748ZM9.71656 112V107.89H10.9316L13.4816 112H16.0016L12.8516 107.335C13.9016 106.855 14.8466 105.97 14.8466 104.5C14.8466 102.34 13.4966 101.29 10.5716 101.29H7.45156V112H9.71656ZM9.71656 103.15H10.4066C11.8616 103.15 12.5516 103.54 12.5516 104.56C12.5516 105.535 11.9516 106.045 10.4516 106.045H9.71656V103.15ZM20.5489 103.66C18.2389 103.66 16.6789 105.115 16.6789 107.965C16.6789 110.8 18.4339 112.15 20.8789 112.15C22.1389 112.15 22.9339 111.97 23.7589 111.565V109.84C22.8439 110.275 22.0189 110.485 20.9839 110.485C19.7239 110.485 18.9889 109.72 18.9439 108.46H24.2239V107.38C24.2239 104.995 22.8139 103.66 20.5489 103.66ZM20.5639 105.25C21.5989 105.25 22.1089 106 22.1239 106.975H18.9889C19.0939 105.79 19.6789 105.25 20.5639 105.25ZM29.3662 112.15C30.5062 112.15 31.1812 111.97 31.8562 111.535V109.63C31.1812 110.065 30.5062 110.335 29.5612 110.335C28.4662 110.335 27.8212 109.57 27.8212 107.935C27.8212 106.285 28.4062 105.46 29.5612 105.46C30.1612 105.46 30.7462 105.655 31.4512 105.94L32.1112 104.215C31.4962 103.915 30.6862 103.66 29.5612 103.66C27.1912 103.66 25.5412 104.95 25.5412 107.95C25.5412 110.875 26.9212 112.15 29.3662 112.15ZM37.1163 103.66C34.8063 103.66 33.2463 105.115 33.2463 107.965C33.2463 110.8 35.0013 112.15 37.4463 112.15C38.7063 112.15 39.5013 111.97 40.3263 111.565V109.84C39.4113 110.275 38.5863 110.485 37.5513 110.485C36.2913 110.485 35.5563 109.72 35.5113 108.46H40.7913V107.38C40.7913 104.995 39.3813 103.66 37.1163 103.66ZM37.1313 105.25C38.1663 105.25 38.6763 106 38.6913 106.975H35.5563C35.6613 105.79 36.2463 105.25 37.1313 105.25ZM43.7286 100.6C43.0536 100.6 42.5136 100.855 42.5136 101.695C42.5136 102.52 43.0536 102.79 43.7286 102.79C44.3886 102.79 44.9436 102.52 44.9436 101.695C44.9436 100.855 44.3886 100.6 43.7286 100.6ZM42.6036 103.81V112H44.8386V103.81H42.6036ZM46.0039 103.81L49.1239 112H51.4189L54.5389 103.81H52.1989L50.6239 108.475C50.4289 109.06 50.3239 109.615 50.2939 110.155H50.2339C50.1889 109.675 50.0989 109.03 49.9189 108.475L48.3439 103.81H46.0039ZM59.0889 103.66C56.7789 103.66 55.2189 105.115 55.2189 107.965C55.2189 110.8 56.9739 112.15 59.4189 112.15C60.6789 112.15 61.4739 111.97 62.2989 111.565V109.84C61.3839 110.275 60.5589 110.485 59.5239 110.485C58.2639 110.485 57.5289 109.72 57.4839 108.46H62.7639V107.38C62.7639 104.995 61.3539 103.66 59.0889 103.66ZM59.1039 105.25C60.1389 105.25 60.6489 106 60.6639 106.975H57.5289C57.6339 105.79 58.2189 105.25 59.1039 105.25ZM67.1713 112.15C68.3563 112.15 69.0613 111.61 69.4963 110.935H69.5863L70.0213 112H71.7313V100.6H69.4963V103.225C69.4963 103.87 69.6013 104.545 69.6613 104.86H69.5863C69.1513 104.185 68.4163 103.66 67.2313 103.66C65.3563 103.66 64.0813 105.115 64.0813 107.92C64.0813 109.315 64.3663 110.365 64.9513 111.07C65.5213 111.79 66.2563 112.15 67.1713 112.15ZM67.9513 110.365C66.9313 110.365 66.3463 109.555 66.3463 107.95C66.3463 106.345 66.9463 105.475 67.9213 105.475C69.2413 105.475 69.6463 106.36 69.6463 107.935V108.175C69.6013 109.63 69.1663 110.365 67.9513 110.365Z" fill="black"/>
<path d="M276.646 92V87.89H277.861L280.411 92H282.931L279.781 87.335C280.831 86.855 281.776 85.97 281.776 84.5C281.776 82.34 280.426 81.29 277.501 81.29H274.381V92H276.646ZM276.646 83.15H277.336C278.791 83.15 279.481 83.54 279.481 84.56C279.481 85.535 278.881 86.045 277.381 86.045H276.646V83.15ZM287.479 83.66C285.169 83.66 283.609 85.115 283.609 87.965C283.609 90.8 285.364 92.15 287.809 92.15C289.069 92.15 289.864 91.97 290.689 91.565V89.84C289.774 90.275 288.949 90.485 287.914 90.485C286.654 90.485 285.919 89.72 285.874 88.46H291.154V87.38C291.154 84.995 289.744 83.66 287.479 83.66ZM287.494 85.25C288.529 85.25 289.039 86 289.054 86.975H285.919C286.024 85.79 286.609 85.25 287.494 85.25ZM300.121 95.6V83.81H298.231L298.036 84.86H297.976C297.511 84.185 296.806 83.66 295.606 83.66C294.676 83.66 293.926 84.02 293.341 84.74C292.756 85.46 292.471 86.525 292.471 87.92C292.471 90.695 293.716 92.15 295.561 92.15C296.761 92.15 297.466 91.61 297.886 90.935H297.976C297.916 91.34 297.886 91.76 297.886 92.165V95.6H300.121ZM296.356 90.395C295.291 90.395 294.751 89.585 294.751 87.95C294.751 86.345 295.261 85.475 296.326 85.475C297.631 85.475 298.036 86.36 298.036 87.935V88.205C297.991 89.66 297.601 90.395 296.356 90.395ZM302.413 89.15C302.413 91.25 303.568 92.15 305.323 92.15C306.343 92.15 307.318 91.79 307.843 90.95H307.963L308.263 92H309.973V83.81H307.738V87.665C307.738 89.405 307.333 90.365 305.968 90.365C305.053 90.365 304.648 89.78 304.648 88.595V83.81H302.413V89.15ZM315.691 83.66C313.381 83.66 311.821 85.115 311.821 87.965C311.821 90.8 313.576 92.15 316.021 92.15C317.281 92.15 318.076 91.97 318.901 91.565V89.84C317.986 90.275 317.161 90.485 316.126 90.485C314.866 90.485 314.131 89.72 314.086 88.46H319.366V87.38C319.366 84.995 317.956 83.66 315.691 83.66ZM315.706 85.25C316.741 85.25 317.251 86 317.266 86.975H314.131C314.236 85.79 314.821 85.25 315.706 85.25ZM326.894 89.57C326.894 88.115 326.024 87.59 324.614 87.02C323.174 86.42 322.904 86.255 322.904 85.85C322.904 85.49 323.234 85.31 323.894 85.31C324.629 85.31 325.334 85.565 326.129 85.91L326.804 84.305C325.829 83.84 324.944 83.66 323.924 83.66C321.959 83.66 320.684 84.425 320.684 85.94C320.684 87.335 321.374 87.86 322.919 88.52C324.509 89.18 324.689 89.39 324.689 89.81C324.689 90.23 324.329 90.515 323.474 90.515C322.694 90.515 321.584 90.23 320.699 89.825V91.67C321.524 92.015 322.259 92.15 323.399 92.15C325.724 92.15 326.894 91.235 326.894 89.57ZM328.875 85.49V89.435C328.875 91.55 329.985 92.15 331.44 92.15C332.28 92.15 333.015 92 333.495 91.775V90.11C333.03 90.275 332.58 90.365 332.085 90.365C331.5 90.365 331.11 90.05 331.11 89.435V85.49H333.405V83.81H331.11V82.07H329.685L329.04 83.795L327.81 84.545V85.49H328.875ZM268.716 103.03C269.496 103.03 270.321 103.36 271.116 103.735L271.851 101.89C270.876 101.425 269.781 101.14 268.716 101.14C265.491 101.14 263.691 103.42 263.691 106.66C263.691 109.96 265.176 112.15 268.506 112.15C269.646 112.15 270.501 111.97 271.446 111.595V109.69C270.426 110.05 269.571 110.26 268.716 110.26C266.841 110.26 266.031 108.955 266.031 106.675C266.031 104.41 266.976 103.03 268.716 103.03ZM280.982 107.89C280.982 105.19 279.332 103.66 277.037 103.66C274.562 103.66 273.047 105.175 273.047 107.89C273.047 110.62 274.712 112.15 276.992 112.15C278.222 112.15 279.197 111.775 279.917 111.04C280.622 110.305 280.982 109.255 280.982 107.89ZM275.327 107.89C275.327 106.27 275.822 105.46 277.007 105.46C278.207 105.46 278.702 106.27 278.702 107.89C278.702 109.51 278.207 110.35 277.022 110.35C275.822 110.35 275.327 109.51 275.327 107.89ZM282.829 112H285.064V108.145C285.064 106.405 285.454 105.445 286.699 105.445C287.524 105.445 287.929 106.03 287.929 107.215V112H290.164V107.89C290.164 106.315 290.614 105.445 291.799 105.445C292.624 105.445 293.029 106.03 293.029 107.215V112H295.264V106.66C295.264 104.56 294.304 103.66 292.444 103.66C291.499 103.66 290.524 104.02 290.029 104.86H289.834C289.369 104.035 288.544 103.66 287.344 103.66C286.399 103.66 285.454 104.02 284.959 104.86H284.839L284.539 103.81H282.829V112ZM297.566 115.6H299.801V112.3C299.801 111.925 299.756 111.52 299.681 111.1H299.801C300.236 111.64 300.881 112.15 302.066 112.15C303.911 112.15 305.216 110.695 305.216 107.89C305.216 105.115 303.971 103.66 302.126 103.66C300.941 103.66 300.236 104.215 299.801 104.875H299.696L299.381 103.81H297.566V115.6ZM299.801 107.635C299.816 106.18 300.251 105.445 301.406 105.445C302.426 105.445 302.936 106.255 302.936 107.86C302.936 109.465 302.456 110.335 301.436 110.335C300.191 110.335 299.801 109.45 299.801 107.875V107.635ZM309.293 100.6H307.058V112H309.293V100.6ZM315.003 103.66C312.693 103.66 311.133 105.115 311.133 107.965C311.133 110.8 312.888 112.15 315.333 112.15C316.593 112.15 317.388 111.97 318.213 111.565V109.84C317.298 110.275 316.473 110.485 315.438 110.485C314.178 110.485 313.443 109.72 313.398 108.46H318.678V107.38C318.678 104.995 317.268 103.66 315.003 103.66ZM315.018 105.25C316.053 105.25 316.563 106 316.578 106.975H313.443C313.548 105.79 314.133 105.25 315.018 105.25ZM320.73 105.49V109.435C320.73 111.55 321.84 112.15 323.295 112.15C324.135 112.15 324.87 112 325.35 111.775V110.11C324.885 110.275 324.435 110.365 323.94 110.365C323.355 110.365 322.965 110.05 322.965 109.435V105.49H325.26V103.81H322.965V102.07H321.54L320.895 103.795L319.665 104.545V105.49H320.73ZM330.369 103.66C328.059 103.66 326.499 105.115 326.499 107.965C326.499 110.8 328.254 112.15 330.699 112.15C331.959 112.15 332.754 111.97 333.579 111.565V109.84C332.664 110.275 331.839 110.485 330.804 110.485C329.544 110.485 328.809 109.72 328.764 108.46H334.044V107.38C334.044 104.995 332.634 103.66 330.369 103.66ZM330.384 105.25C331.419 105.25 331.929 106 331.944 106.975H328.809C328.914 105.79 329.499 105.25 330.384 105.25ZM338.452 112.15C339.637 112.15 340.342 111.61 340.777 110.935H340.867L341.302 112H343.012V100.6H340.777V103.225C340.777 103.87 340.882 104.545 340.942 104.86H340.867C340.432 104.185 339.697 103.66 338.512 103.66C336.637 103.66 335.362 105.115 335.362 107.92C335.362 109.315 335.647 110.365 336.232 111.07C336.802 111.79 337.537 112.15 338.452 112.15ZM339.232 110.365C338.212 110.365 337.627 109.555 337.627 107.95C337.627 106.345 338.227 105.475 339.202 105.475C340.522 105.475 340.927 106.36 340.927 107.935V108.175C340.882 109.63 340.447 110.365 339.232 110.365Z" fill="black"/>
<g filter="url(#filter2_d_69_26)">
<circle cx="171.5" cy="34.5" r="28.5" fill="#FFFEFF"/>
<circle cx="171.5" cy="34.5" r="27" stroke="#313132" stroke-width="3"/>
</g>
<path d="M180.404 42.428H169.208V42.176L172.52 39.08C177.056 34.904 179.684 32.168 179.684 27.884C179.684 23.96 176.552 20.936 171.548 20.936C166.94 20.936 164.564 22.7 162.368 24.608L165.32 28.1C167.372 26.408 169.172 25.472 171.152 25.472C173.06 25.472 174.284 26.48 174.284 28.532C174.284 31.088 172.808 32.636 168.884 36.704L162.44 43.22V47H180.404V42.428Z" fill="#313132"/>
<path d="M140.845 92H143.29L144.07 89.45H147.97L148.75 92H151.195L147.4 81.245H144.625L140.845 92ZM145.405 85.055C145.51 84.755 145.885 83.48 146.02 82.91C146.17 83.495 146.5 84.56 146.65 85.055L147.43 87.545H144.64L145.405 85.055ZM152.372 95.6H154.607V92.3C154.607 91.925 154.562 91.52 154.487 91.1H154.607C155.042 91.64 155.687 92.15 156.872 92.15C158.717 92.15 160.022 90.695 160.022 87.89C160.022 85.115 158.777 83.66 156.932 83.66C155.747 83.66 155.042 84.215 154.607 84.875H154.502L154.187 83.81H152.372V95.6ZM154.607 87.635C154.622 86.18 155.057 85.445 156.212 85.445C157.232 85.445 157.742 86.255 157.742 87.86C157.742 89.465 157.262 90.335 156.242 90.335C154.997 90.335 154.607 89.45 154.607 87.875V87.635ZM161.864 95.6H164.099V92.3C164.099 91.925 164.054 91.52 163.979 91.1H164.099C164.534 91.64 165.179 92.15 166.364 92.15C168.209 92.15 169.514 90.695 169.514 87.89C169.514 85.115 168.269 83.66 166.424 83.66C165.239 83.66 164.534 84.215 164.099 84.875H163.994L163.679 83.81H161.864V95.6ZM164.099 87.635C164.114 86.18 164.549 85.445 165.704 85.445C166.724 85.445 167.234 86.255 167.234 87.86C167.234 89.465 166.754 90.335 165.734 90.335C164.489 90.335 164.099 89.45 164.099 87.875V87.635ZM175.931 83.66C174.836 83.66 173.966 84.35 173.486 85.19H173.381L173.051 83.81H171.356V92H173.591V87.83C173.591 86.285 174.701 85.745 175.856 85.745C176.051 85.745 176.351 85.775 176.516 85.82L176.681 83.72C176.501 83.675 176.156 83.66 175.931 83.66ZM185.315 87.89C185.315 85.19 183.665 83.66 181.37 83.66C178.895 83.66 177.38 85.175 177.38 87.89C177.38 90.62 179.045 92.15 181.325 92.15C182.555 92.15 183.53 91.775 184.25 91.04C184.955 90.305 185.315 89.255 185.315 87.89ZM179.66 87.89C179.66 86.27 180.155 85.46 181.34 85.46C182.54 85.46 183.035 86.27 183.035 87.89C183.035 89.51 182.54 90.35 181.355 90.35C180.155 90.35 179.66 89.51 179.66 87.89ZM185.992 83.81L189.112 92H191.407L194.527 83.81H192.187L190.612 88.475C190.417 89.06 190.312 89.615 190.282 90.155H190.222C190.177 89.675 190.087 89.03 189.907 88.475L188.332 83.81H185.992ZM197.697 92.15C199.062 92.15 199.707 91.775 200.412 90.89H200.472L200.907 92H202.467V86.54C202.467 84.575 201.267 83.645 199.062 83.645C197.907 83.645 196.782 83.945 195.927 84.38L196.662 85.895C197.427 85.55 198.177 85.295 198.972 85.295C199.767 85.295 200.247 85.685 200.247 86.54V86.9L198.822 86.945C196.377 87.05 195.162 87.815 195.162 89.555C195.162 91.34 196.242 92.15 197.697 92.15ZM197.457 89.57C197.457 88.79 197.937 88.28 199.377 88.235L200.247 88.205V88.88C200.247 89.915 199.497 90.515 198.537 90.515C197.892 90.515 197.457 90.245 197.457 89.57ZM206.989 80.6H204.754V92H206.989V80.6ZM149.763 112V108.19H150.738C153.858 108.19 154.893 106.525 154.893 104.635C154.893 102.55 153.678 101.29 150.918 101.29H147.498V112H149.763ZM149.763 103.15H150.798C151.998 103.15 152.598 103.675 152.598 104.71C152.598 105.85 151.788 106.33 150.513 106.33H149.763V103.15ZM161.312 103.66C160.217 103.66 159.347 104.35 158.867 105.19H158.762L158.432 103.81H156.737V112H158.972V107.83C158.972 106.285 160.082 105.745 161.237 105.745C161.432 105.745 161.732 105.775 161.897 105.82L162.062 103.72C161.882 103.675 161.537 103.66 161.312 103.66ZM170.695 107.89C170.695 105.19 169.045 103.66 166.75 103.66C164.275 103.66 162.76 105.175 162.76 107.89C162.76 110.62 164.425 112.15 166.705 112.15C167.935 112.15 168.91 111.775 169.63 111.04C170.335 110.305 170.695 109.255 170.695 107.89ZM165.04 107.89C165.04 106.27 165.535 105.46 166.72 105.46C167.92 105.46 168.415 106.27 168.415 107.89C168.415 109.51 167.92 110.35 166.735 110.35C165.535 110.35 165.04 109.51 165.04 107.89ZM175.873 112.15C177.013 112.15 177.688 111.97 178.363 111.535V109.63C177.688 110.065 177.013 110.335 176.068 110.335C174.973 110.335 174.328 109.57 174.328 107.935C174.328 106.285 174.913 105.46 176.068 105.46C176.668 105.46 177.253 105.655 177.958 105.94L178.618 104.215C178.003 103.915 177.193 103.66 176.068 103.66C173.698 103.66 172.048 104.95 172.048 107.95C172.048 110.875 173.428 112.15 175.873 112.15ZM183.623 103.66C181.313 103.66 179.753 105.115 179.753 107.965C179.753 110.8 181.508 112.15 183.953 112.15C185.213 112.15 186.008 111.97 186.833 111.565V109.84C185.918 110.275 185.093 110.485 184.058 110.485C182.798 110.485 182.063 109.72 182.018 108.46H187.298V107.38C187.298 104.995 185.888 103.66 183.623 103.66ZM183.638 105.25C184.673 105.25 185.183 106 185.198 106.975H182.063C182.168 105.79 182.753 105.25 183.638 105.25ZM194.825 109.57C194.825 108.115 193.955 107.59 192.545 107.02C191.105 106.42 190.835 106.255 190.835 105.85C190.835 105.49 191.165 105.31 191.825 105.31C192.56 105.31 193.265 105.565 194.06 105.91L194.735 104.305C193.76 103.84 192.875 103.66 191.855 103.66C189.89 103.66 188.615 104.425 188.615 105.94C188.615 107.335 189.305 107.86 190.85 108.52C192.44 109.18 192.62 109.39 192.62 109.81C192.62 110.23 192.26 110.515 191.405 110.515C190.625 110.515 189.515 110.23 188.63 109.825V111.67C189.455 112.015 190.19 112.15 191.33 112.15C193.655 112.15 194.825 111.235 194.825 109.57ZM202.281 109.57C202.281 108.115 201.411 107.59 200.001 107.02C198.561 106.42 198.291 106.255 198.291 105.85C198.291 105.49 198.621 105.31 199.281 105.31C200.016 105.31 200.721 105.565 201.516 105.91L202.191 104.305C201.216 103.84 200.331 103.66 199.311 103.66C197.346 103.66 196.071 104.425 196.071 105.94C196.071 107.335 196.761 107.86 198.306 108.52C199.896 109.18 200.076 109.39 200.076 109.81C200.076 110.23 199.716 110.515 198.861 110.515C198.081 110.515 196.971 110.23 196.086 109.825V111.67C196.911 112.015 197.646 112.15 198.786 112.15C201.111 112.15 202.281 111.235 202.281 109.57Z" fill="black"/>
<defs>
<filter id="filter0_d_69_26" x="7" y="6" width="65" height="65" filterUnits="userSpaceOnUse" color-interpolation-filters="sRGB">
<feFlood flood-opacity="0" result="BackgroundImageFix"/>
<feColorMatrix in="SourceAlpha" type="matrix" values="0 0 0 0 0 0 0 0 0 0 0 0 0 0 0 0 0 0 127 0" result="hardAlpha"/>
<feOffset dy="4"/>
<feGaussianBlur stdDeviation="2"/>
<feComposite in2="hardAlpha" operator="out"/>
<feColorMatrix type="matrix" values="0 0 0 0 0 0 0 0 0 0 0 0 0 0 0 0 0 0 0.25 0"/>
<feBlend mode="normal" in2="BackgroundImageFix" result="effect1_dropShadow_69_26"/>
<feBlend mode="normal" in="SourceGraphic" in2="effect1_dropShadow_69_26" result="shape"/>
</filter>
<filter id="filter1_d_69_26" x="271" y="6" width="65" height="65" filterUnits="userSpaceOnUse" color-interpolation-filters="sRGB">
<feFlood flood-opacity="0" result="BackgroundImageFix"/>
<feColorMatrix in="SourceAlpha" type="matrix" values="0 0 0 0 0 0 0 0 0 0 0 0 0 0 0 0 0 0 127 0" result="hardAlpha"/>
<feOffset dy="4"/>
<feGaussianBlur stdDeviation="2"/>
<feComposite in2="hardAlpha" operator="out"/>
<feColorMatrix type="matrix" values="0 0 0 0 0 0 0 0 0 0 0 0 0 0 0 0 0 0 0.25 0"/>
<feBlend mode="normal" in2="BackgroundImageFix" result="effect1_dropShadow_69_26"/>
<feBlend mode="normal" in="SourceGraphic" in2="effect1_dropShadow_69_26" result="shape"/>
</filter>
<filter id="filter2_d_69_26" x="139" y="6" width="65" height="65" filterUnits="userSpaceOnUse" color-interpolation-filters="sRGB">
<feFlood flood-opacity="0" result="BackgroundImageFix"/>
<feColorMatrix in="SourceAlpha" type="matrix" values="0 0 0 0 0 0 0 0 0 0 0 0 0 0 0 0 0 0 127 0" result="hardAlpha"/>
<feOffset dy="4"/>
<feGaussianBlur stdDeviation="2"/>
<feComposite in2="hardAlpha" operator="out"/>
<feColorMatrix type="matrix" values="0 0 0 0 0 0 0 0 0 0 0 0 0 0 0 0 0 0 0.25 0"/>
<feBlend mode="normal" in2="BackgroundImageFix" result="effect1_dropShadow_69_26"/>
<feBlend mode="normal" in="SourceGraphic" in2="effect1_dropShadow_69_26" result="shape"/>
</filter>
</defs>
</svg>
